<?xml version="1.0" encoding="utf-8"?>
<COLLADA xmlns="http://www.collada.org/2005/11/COLLADASchema" version="1.4.1" xmlns:xsi="http://www.w3.org/2001/XMLSchema-instance">
  <asset>
    <contributor>
      <author>Blender User</author>
      <authoring_tool>Blender 2.93.6 commit date:2021-11-16, commit time:14:54, hash:c842a90e2fa1</authoring_tool>
    </contributor>
    <created>2023-07-04T12:20:31</created>
    <modified>2023-07-04T12:20:31</modified>
    <unit name="meter" meter="1"/>
    <up_axis>Z_UP</up_axis>
  </asset>
  <library_effects>
    <effect id="ID10_003-effect">
      <profile_COMMON>
        <technique sid="common">
          <lambert>
            <emission>
              <color sid="emission">0 0 0 1</color>
            </emission>
            <diffuse>
              <color sid="diffuse">1 1 1 1</color>
            </diffuse>
            <index_of_refraction>
              <float sid="ior">1.45</float>
            </index_of_refraction>
          </lambert>
        </technique>
      </profile_COMMON>
    </effect>
  </library_effects>
  <library_images/>
  <library_materials>
    <material id="ID10_003-material" name="ID10.003">
      <instance_effect url="#ID10_003-effect"/>
    </material>
  </library_materials>
  <library_geometries>
    <geometry id="ID4_018-mesh" name="ID4.018">
      <mesh>
        <source id="ID4_018-mesh-positions">
          <float_array id="ID4_018-mesh-positions-array" count="4518">0.03288353 0.02013279 0 0 0.01744837 0 0 0.02483043 0 0.08321558 0.01744837 0 0.079189 0.00402651 0 0.079189 0.01744837 0 0 0 0 0.079189 0 0 0 0.00402651 0 -0.00402651 0.00402651 0 -0.00402651 0.01744837 0 0.04630547 0.02013279 0 0.079189 0.02483043 0 0.04630547 0.0161062 0 0.03288353 0.0161062 0 0.08321558 0.00402651 0 0 0 0.003355465 0 0.00402651 0.003355465 0 0.00402651 0 0 0 0 0 0.00402651 0.003355465 -0.00402651 0.00402651 0.003355465 -0.00402651 0.00402651 0 0 0.00402651 0 -0.00402651 0.00402651 0 -0.00402651 0.01744837 0.003355465 -0.00402651 0.01744837 0 -0.00402651 0.00402651 0.003355465 -0.00402651 0.01744837 0 0 0.01744837 0.003355465 0 0.01744837 0 -0.00402651 0.01744837 0.003355465 0 0.01744837 0 0 0.02483043 0.003355465 0 0.02483043 0 0 0.01744837 0.003355465 0 0.02483043 0 0.079189 0.02483043 0.003355465 0.079189 0.02483043 0 0 0.02483043 0.003355465 0.079189 0.02483043 0 0.079189 0.02483043 0.003355465 0.079189 0.01744837 0.003355465 0.079189 0.01744837 0 0.079189 0.01744837 0 0.08321558 0.01744837 0.003355465 0.08321558 0.01744837 0 0.079189 0.01744837 0.003355465 0.08321558 0.01744837 0 0.08321558 0.01744837 0.003355465 0.08321558 0.00402651 0.003355465 0.08321558 0.00402651 0 0.08321558 0.00402651 0 0.08321558 0.00402651 0.003355465 0.079189 0.00402651 0.003355465 0.079189 0.00402651 0 0.079189 0.00402651 0 0.079189 0.00402651 0.003355465 0.079189 0 0.003355465 0.079189 0 0 0.079189 0 0 0.079189 0 0.003355465 0 0 0.003355465 0 0 0 0.04630547 0.0161062 0.003355465 0.04630547 0.0161062 0 0.03288353 0.0161062 0 0.03288353 0.0161062 0.003355465 0.04630547 0.0161062 0.003355465 0.04630547 0.02013279 0.003355465 0.04630547 0.02013279 0 0.04630547 0.0161062 0 0.04630547 0.02013279 0.003355465 0.03288353 0.02013279 0 0.04630547 0.02013279 0 0.03288353 0.02013279 0.003355465 0.03288353 0.02013279 0.003355465 0.03288353 0.0161062 0 0.03288353 0.02013279 0 0.03288353 0.0161062 0.003355465 0.079189 0.00402651 0.003355465 0 0.00402651 0.003355465 0 0 0.003355465 0 0.01744837 0.003355465 -0.00402651 0.00402651 0.003355465 -0.00402651 0.01744837 0.003355465 0 0.02483043 0.003355465 0.03288353 0.02013279 0.003355465 0.079189 0.02483043 0.003355465 0.03288353 0.0161062 0.003355465 0.079189 0.01744837 0.003355465 0.04630547 0.02013279 0.003355465 0.08321558 0.00402651 0.003355465 0.08321558 0.01744837 0.003355465 0.079189 0 0.003355465 0.04630547 0.0161062 0.003355465 0.01342186 0.01677732 0.1046905 0.06576713 0.01677732 0.1046905 0.06576713 0.01677732 0.08455776 0 0.01677732 0.1120726 0.009395271 0.01677732 0.1046905 0 0.01677732 0.09059764 0.08321558 0.01677732 0.0771757 0.079189 0.01677732 0.0771757 0.079189 0.01677732 0.09059764 0.08321558 0.01677732 0.09059764 0.08321558 0.01677732 0.06375384 0.08321558 0.01677732 0.05033198 0.079189 0.01677732 0.06375384 0.08321558 0.01677732 0.02348825 0.079189 0.01677732 0.03691012 0.08321558 0.01677732 0.03691012 0.01342186 0.01677732 0.08455776 0.01342186 0.01677732 0.03087031 0 0.01677732 0.06375384 0.06576713 0.01677732 0.03087031 0.079189 0.01677732 0.05033198 0.03288353 0.01677732 0.003355465 0.04630547 0.01677732 0.003355465 0.01342186 0.01677732 0.01073744 0.079189 0.01677732 0.02348825 0.06576713 0.01677732 0.01073744 0.04630547 0.01677732 -0.0006711045 0.03288353 0.01677732 -0.0006711045 0 0.01677732 0.02348825 0.009395271 0.01677732 0.01073744 0 0.01677732 0.003355465 0.009395271 0.01677732 0.08455776 -0.00402651 0.01677732 0.03691012 0 0.01677732 0.03691012 0.009395271 0.01677732 0.03087031 -0.00402651 0.01677732 0.02348825 -0.00402651 0.01677732 0.06375384 0 0.01677732 0.05033198 -0.00402651 0.01677732 0.05033198 0 0.01677732 0.0771757 -0.00402651 0.01677732 0.09059764 -0.00402651 0.01677732 0.0771757 0.06979372 0.01677732 0.03087031 0.079189 0.01677732 0.003355465 0.06979372 0.01677732 0.01073744 0.079189 0.01677732 0.1120726 0.06979372 0.01677732 0.08455776 0.06979372 0.01677732 0.1046905 0 0.02013279 0.1120726 0 0.01677732 0.09059764 0 0.02013279 0.09059764 0 0.01677732 0.1120726 0.079189 0.02013279 0.1120726 0 0.01677732 0.1120726 0 0.02013279 0.1120726 0.079189 0.01677732 0.1120726 0.079189 0.02013279 0.09059764 0.079189 0.01677732 0.1120726 0.079189 0.02013279 0.1120726 0.079189 0.01677732 0.09059764 0.08321558 0.02013279 0.09059764 0.079189 0.01677732 0.09059764 0.079189 0.02013279 0.09059764 0.08321558 0.01677732 0.09059764 0.08321558 0.02013279 0.0771757 0.08321558 0.01677732 0.09059764 0.08321558 0.02013279 0.09059764 0.08321558 0.01677732 0.0771757 0.079189 0.02013279 0.0771757 0.08321558 0.01677732 0.0771757 0.08321558 0.02013279 0.0771757 0.079189 0.01677732 0.0771757 0.079189 0.02013279 0.06375384 0.079189 0.01677732 0.0771757 0.079189 0.02013279 0.0771757 0.079189 0.01677732 0.06375384 0.08321558 0.02013279 0.06375384 0.079189 0.01677732 0.06375384 0.079189 0.02013279 0.06375384 0.08321558 0.01677732 0.06375384 0.08321558 0.02013279 0.05033198 0.08321558 0.01677732 0.06375384 0.08321558 0.02013279 0.06375384 0.08321558 0.01677732 0.05033198 0.079189 0.02013279 0.05033198 0.08321558 0.01677732 0.05033198 0.08321558 0.02013279 0.05033198 0.079189 0.01677732 0.05033198 0.079189 0.02013279 0.03691012 0.079189 0.01677732 0.05033198 0.079189 0.02013279 0.05033198 0.079189 0.01677732 0.03691012 0.08321558 0.02013279 0.03691012 0.079189 0.01677732 0.03691012 0.079189 0.02013279 0.03691012 0.08321558 0.01677732 0.03691012 0.08321558 0.02013279 0.02348825 0.08321558 0.01677732 0.03691012 0.08321558 0.02013279 0.03691012 0.08321558 0.01677732 0.02348825 0.079189 0.02013279 0.02348825 0.08321558 0.01677732 0.02348825 0.08321558 0.02013279 0.02348825 0.079189 0.01677732 0.02348825 0.079189 0.02013279 0.003355465 0.079189 0.01677732 0.02348825 0.079189 0.02013279 0.02348825 0.079189 0.01677732 0.003355465 0.04630547 0.02013279 0.003355465 0.079189 0.01677732 0.003355465 0.079189 0.02013279 0.003355465 0.04630547 0.01677732 0.003355465 0.04630547 0.02013279 -0.0006711045 0.04630547 0.01677732 0.003355465 0.04630547 0.02013279 0.003355465 0.04630547 0.01677732 -0.0006711045 0.03288353 0.02013279 -0.0006711045 0.04630547 0.01677732 -0.0006711045 0.04630547 0.02013279 -0.0006711045 0.03288353 0.01677732 -0.0006711045 0.03288353 0.02013279 0.003355465 0.03288353 0.01677732 -0.0006711045 0.03288353 0.02013279 -0.0006711045 0.03288353 0.01677732 0.003355465 0 0.02013279 0.003355465 0.03288353 0.01677732 0.003355465 0.03288353 0.02013279 0.003355465 0 0.01677732 0.003355465 0 0.02013279 0.02348825 0 0.01677732 0.003355465 0 0.02013279 0.003355465 0 0.01677732 0.02348825 -0.00402651 0.02013279 0.02348825 0 0.01677732 0.02348825 0 0.02013279 0.02348825 -0.00402651 0.01677732 0.02348825 -0.00402651 0.02013279 0.03691012 -0.00402651 0.01677732 0.02348825 -0.00402651 0.02013279 0.02348825 -0.00402651 0.01677732 0.03691012 0 0.02013279 0.03691012 -0.00402651 0.01677732 0.03691012 -0.00402651 0.02013279 0.03691012 0 0.01677732 0.03691012 0 0.02013279 0.05033198 0 0.01677732 0.03691012 0 0.02013279 0.03691012 0 0.01677732 0.05033198 -0.00402651 0.02013279 0.05033198 0 0.01677732 0.05033198 0 0.02013279 0.05033198 -0.00402651 0.01677732 0.05033198 -0.00402651 0.02013279 0.06375384 -0.00402651 0.01677732 0.05033198 -0.00402651 0.02013279 0.05033198 -0.00402651 0.01677732 0.06375384 0 0.02013279 0.06375384 -0.00402651 0.01677732 0.06375384 -0.00402651 0.02013279 0.06375384 0 0.01677732 0.06375384 0 0.02013279 0.0771757 0 0.01677732 0.06375384 0 0.02013279 0.06375384 0 0.01677732 0.0771757 -0.00402651 0.02013279 0.0771757 0 0.01677732 0.0771757 0 0.02013279 0.0771757 -0.00402651 0.01677732 0.0771757 -0.00402651 0.02013279 0.09059764 -0.00402651 0.01677732 0.0771757 -0.00402651 0.02013279 0.0771757 -0.00402651 0.01677732 0.09059764 0 0.02013279 0.09059764 -0.00402651 0.01677732 0.09059764 -0.00402651 0.02013279 0.09059764 0 0.01677732 0.09059764 0.01342186 0.02013279 0.1046905 0.009395271 0.01677732 0.1046905 0.01342186 0.01677732 0.1046905 0.009395271 0.02013279 0.1046905 0.009395271 0.02013279 0.1046905 0.009395271 0.01677732 0.08455776 0.009395271 0.01677732 0.1046905 0.009395271 0.02013279 0.08455776 0.009395271 0.02013279 0.08455776 0.01342186 0.01677732 0.08455776 0.009395271 0.01677732 0.08455776 0.01342186 0.02013279 0.08455776 0.01342186 0.02013279 0.08455776 0.01342186 0.01677732 0.1046905 0.01342186 0.01677732 0.08455776 0.01342186 0.02013279 0.1046905 0.01342186 0.02013279 0.03087031 0.009395271 0.01677732 0.03087031 0.01342186 0.01677732 0.03087031 0.009395271 0.02013279 0.03087031 0.009395271 0.02013279 0.03087031 0.009395271 0.01677732 0.01073744 0.009395271 0.01677732 0.03087031 0.009395271 0.02013279 0.01073744 0.009395271 0.02013279 0.01073744 0.01342186 0.01677732 0.01073744 0.009395271 0.01677732 0.01073744 0.01342186 0.02013279 0.01073744 0.01342186 0.02013279 0.01073744 0.01342186 0.01677732 0.03087031 0.01342186 0.01677732 0.01073744 0.01342186 0.02013279 0.03087031 0.06979372 0.02013279 0.03087031 0.06576713 0.01677732 0.03087031 0.06979372 0.01677732 0.03087031 0.06576713 0.02013279 0.03087031 0.06576713 0.02013279 0.03087031 0.06576713 0.01677732 0.01073744 0.06576713 0.01677732 0.03087031 0.06576713 0.02013279 0.01073744 0.06576713 0.02013279 0.01073744 0.06979372 0.01677732 0.01073744 0.06576713 0.01677732 0.01073744 0.06979372 0.02013279 0.01073744 0.06979372 0.02013279 0.01073744 0.06979372 0.01677732 0.03087031 0.06979372 0.01677732 0.01073744 0.06979372 0.02013279 0.03087031 0.06979372 0.02013279 0.1046905 0.06576713 0.01677732 0.1046905 0.06979372 0.01677732 0.1046905 0.06576713 0.02013279 0.1046905 0.06576713 0.02013279 0.1046905 0.06576713 0.01677732 0.08455776 0.06576713 0.01677732 0.1046905 0.06576713 0.02013279 0.08455776 0.06576713 0.02013279 0.08455776 0.06979372 0.01677732 0.08455776 0.06576713 0.01677732 0.08455776 0.06979372 0.02013279 0.08455776 0.06979372 0.02013279 0.08455776 0.06979372 0.01677732 0.1046905 0.06979372 0.01677732 0.08455776 0.06979372 0.02013279 0.1046905 0 0.02013279 0.0771757 0 0.02013279 0.09059764 -0.00402651 0.02013279 0.09059764 0.08321558 0.02013279 0.0771757 0.079189 0.02013279 0.09059764 0.079189 0.02013279 0.0771757 0.06979372 0.02013279 0.1046905 0.06979372 0.02013279 0.08455776 0.079189 0.02013279 0.1120726 0.08321558 0.02013279 0.09059764 0.079189 0.02013279 0.06375384 0.08321558 0.02013279 0.05033198 0.08321558 0.02013279 0.06375384 0.079189 0.02013279 0.05033198 0.06576713 0.02013279 0.03087031 0.06979372 0.02013279 0.03087031 0 0.02013279 0.06375384 0.009395271 0.02013279 0.08455776 0.06576713 0.02013279 0.08455776 0.08321558 0.02013279 0.03691012 0.079189 0.02013279 0.03691012 0.08321558 0.02013279 0.02348825 0.079189 0.02013279 0.02348825 0.01342186 0.02013279 0.03087031 0.01342186 0.02013279 0.08455776 0.06576713 0.02013279 0.01073744 0.04630547 0.02013279 0.003355465 0.079189 0.02013279 0.003355465 0.06979372 0.02013279 0.01073744 0.04630547 0.02013279 -0.0006711045 0.03288353 0.02013279 0.003355465 0.03288353 0.02013279 -0.0006711045 0.01342186 0.02013279 0.01073744 0 0.02013279 0.003355465 0.009395271 0.02013279 0.01073744 0 0.02013279 0.02348825 0 0.02013279 0.03691012 -0.00402651 0.02013279 0.03691012 -0.00402651 0.02013279 0.02348825 -0.00402651 0.02013279 0.0771757 0 0.02013279 0.05033198 -0.00402651 0.02013279 0.06375384 -0.00402651 0.02013279 0.05033198 0.009395271 0.02013279 0.1046905 0 0.02013279 0.1120726 0.06576713 0.02013279 0.1046905 0.01342186 0.02013279 0.1046905 0.009395271 0.02013279 0.03087031 0 0.008041821 0.1187919 0 0 0.0852288 0 0 0.108046 0 0.01286002 0.1319504 0 0.0160838 0.1295378 0 0 0.01811949 0 -0.00402651 0.03825229 0 0 0.03825229 0 0.004818116 0.1212045 0 0.01744837 -0.0006711246 0 0.02460034 -0.00541596 0 0.0188911 -0.01152953 0 0.02894382 0.1534424 0 0.02412562 0.1402838 0 0.02090183 0.1426964 0 0.04528898 0.1171574 0 0.04225072 0.06748107 0 0.02013279 0.09059756 0 0.03216752 0.1510298 0 0.0161062 0.0771757 0 0.0161062 0.09059756 0 0.04423041 0.1671485 0 0.02013279 0.02348817 0 0.02013279 0.03691012 0 0.03271256 0.00940855 0 0.02920757 0.001563291 0 0 0.06509601 0 0.01744837 0.003355386 0 0.0161062 0.05033198 0 0.0161062 0.03691012 0 0.0103016 -0.01641107 0 0.00402651 -0.0006711246 0 0.00402651 0.003355386 0 0.0161062 0.02348817 0 0.008560865 -0.01589596 0 0.003866909 -0.01319762 0 0.00530092 -0.0143109 0 0.006881811 -0.01520466 0 0.0008930352 -0.008699905 0 0 -0.003355465 0 0.0003918396 -0.006957492 0 0.0001033168 -0.005167718 0 0.002632099 -0.01186857 0 0.001636011 -0.01035352 0 -0.00402651 0.01811949 0 -0.00402651 0.0852288 0 -0.00402651 0.06509601 0 0.02013279 0.0771757 0 0.02013279 0.06375384 0 0.03511562 0.01811949 0 0.02013279 0.05033198 0 0.01207961 -0.01677732 0 0.0161062 0.06375384 0 0 0.108046 -0.003355386 0 0.0852288 -0.003355386 0 0.108046 0 0 0.0852288 -0.003355465 0.008041821 0.1187919 0 0 0.108046 -0.003355386 0 0.108046 0 0.008041821 0.1187919 -0.003355465 0.004818116 0.1212045 0 0.008041821 0.1187919 -0.003355465 0.008041821 0.1187919 0 0.004818116 0.1212045 -0.003355465 0.01286002 0.1319504 0 0.004818116 0.1212045 -0.003355465 0.004818116 0.1212045 0 0.01286002 0.1319504 -0.003355465 0.0160838 0.1295378 0 0.01286002 0.1319504 -0.003355465 0.01286002 0.1319504 0 0.0160838 0.1295378 -0.003355465 0.02412562 0.1402838 0 0.0160838 0.1295378 -0.003355465 0.0160838 0.1295378 0 0.02412562 0.1402838 -0.003355465 0.02090183 0.1426964 0 0.02412562 0.1402838 -0.003355465 0.02412562 0.1402838 0 0.02090183 0.1426964 -0.003355465 0.02894382 0.1534424 0 0.02090183 0.1426964 -0.003355465 0.02090183 0.1426964 0 0.02894382 0.1534424 -0.003355465 0.03216752 0.1510298 0 0.02894382 0.1534424 -0.003355465 0.02894382 0.1534424 0 0.03216752 0.1510298 -0.003355465 0.04423041 0.1671485 0 0.03216752 0.1510298 -0.003355465 0.03216752 0.1510298 0 0.04423041 0.1671485 0 0.04528898 0.1171574 0 0.04423041 0.1671485 -0.003355465 0.04528898 0.1171574 -0.003355465 0.04225072 0.06748107 -0.003355465 0.04423041 0.1671485 0 0.04225072 0.06748107 -0.003355386 0.03511562 0.01811949 0 0.03511562 0.01811949 0 0.03271256 0.00940855 -0.003355386 0.02920757 0.001563291 0 0.02920757 0.001563291 -0.003355386 0.02460034 -0.00541596 0 0.03511562 0.01811949 -0.003355386 0.03511562 0.01811949 -0.003355386 0.03271256 0.00940855 0 0.02460034 -0.00541596 -0.003355386 0.0188911 -0.01152953 0 0.0188911 -0.01152953 -0.003355386 0.01207961 -0.01677732 0 0.01207961 -0.01677732 0 0.00530092 -0.0143109 -0.003355386 0.003875468 -0.01320042 0 0.003866909 -0.01319762 -0.003355386 0.00263698 -0.01187537 0 0.006881811 -0.01520466 -0.003355386 0.005309319 -0.01430971 -0.003355386 0.006887651 -0.01520187 0 0.008560865 -0.01589596 -0.003355386 0.008563984 -0.01589339 0 0.0103016 -0.01641107 -0.003355386 0.01030192 -0.01641107 0 0.01207961 -0.01677732 -0.003355386 0.01207961 -0.01677732 0 0.002632099 -0.01186857 -0.003355386 0.001635692 -0.01036144 0 0.001636011 -0.01035352 0 0.0008930352 -0.008699905 -0.003355386 0.0008899173 -0.008706066 -0.003355386 0.0003886827 -0.006960853 0 0.0003918396 -0.006957492 -0.003355386 0.0001033445 -0.005167959 0 0.0001033168 -0.005167718 -0.003355386 0 -0.003355465 0 0 -0.003355465 -0.003355386 0 0.01811949 0 0 -0.003355465 -0.003355386 0 -0.003355465 0 0 0.01811949 0 -0.00402651 0.01811949 0 0 0.01811949 -0.003355386 0 0.01811949 -0.003355386 -0.00402651 0.01811949 -0.003355386 -0.00402651 0.03825229 0 -0.00402651 0.01811949 -0.003355386 -0.00402651 0.01811949 0 -0.00402651 0.03825229 0 0 0.03825229 -0.003355386 -0.00402651 0.03825229 -0.003355386 0 0.03825229 0 -0.00402651 0.03825229 -0.003355386 0 0.06509601 0 0 0.03825229 -0.003355386 0 0.03825229 0 0 0.06509601 0 -0.00402651 0.06509601 0 0 0.06509601 -0.003355386 0 0.06509601 -0.003355386 -0.00402651 0.06509601 -0.003355386 -0.00402651 0.0852288 0 -0.00402651 0.06509601 -0.003355386 -0.00402651 0.06509601 0 -0.00402651 0.0852288 0 0 0.0852288 -0.003355386 -0.00402651 0.0852288 -0.003355386 0 0.0852288 0 -0.00402651 0.0852288 -0.003355386 0.0161062 0.02348817 0 0.0161062 0.03691012 -0.003355386 0.0161062 0.03691012 0 0.0161062 0.02348817 -0.003355386 0.02013279 0.02348817 0 0.02013279 0.02348817 0 0.0161062 0.02348817 -0.003355386 0.0161062 0.02348817 -0.003355386 0.02013279 0.02348817 0 0.02013279 0.03691012 0 0.02013279 0.02348817 -0.003355386 0.02013279 0.03691012 -0.003355386 0.0161062 0.03691012 0 0.02013279 0.03691012 -0.003355386 0.02013279 0.03691012 0 0.0161062 0.03691012 -0.003355386 0.0161062 0.05033198 0 0.0161062 0.06375384 -0.003355386 0.0161062 0.06375384 0 0.0161062 0.05033198 -0.003355386 0.02013279 0.05033198 0 0.02013279 0.05033198 0 0.0161062 0.05033198 -0.003355386 0.0161062 0.05033198 -0.003355386 0.02013279 0.05033198 0 0.02013279 0.06375384 0 0.02013279 0.05033198 -0.003355386 0.02013279 0.06375384 -0.003355386 0.0161062 0.06375384 0 0.02013279 0.06375384 -0.003355386 0.02013279 0.06375384 0 0.0161062 0.06375384 -0.003355386 0.0161062 0.0771757 0 0.0161062 0.09059756 -0.003355386 0.0161062 0.09059756 0 0.0161062 0.0771757 -0.003355386 0.02013279 0.0771757 0 0.02013279 0.0771757 0 0.0161062 0.0771757 -0.003355386 0.0161062 0.0771757 -0.003355386 0.02013279 0.0771757 0 0.02013279 0.09059756 0 0.02013279 0.0771757 -0.003355465 0.02013279 0.09059756 -0.003355386 0.0161062 0.09059756 0 0.02013279 0.09059756 -0.003355465 0.02013279 0.09059756 0 0.0161062 0.09059756 -0.003355386 0.00402651 0.003355386 0 0.00402651 -0.0006711246 0 0.00402651 0.003355386 -0.003355386 0.00402651 -0.0006711246 -0.003355386 0.01744837 -0.0006711246 0 0.01744837 -0.0006711246 0 0.00402651 -0.0006711246 -0.003355386 0.00402651 -0.0006711246 -0.003355386 0.01744837 0.003355386 0 0.01744837 0.003355386 0 0.01744837 -0.0006711246 -0.003355386 0.01744837 -0.0006711246 -0.003355386 0.00402651 0.003355386 0 0.01744837 0.003355386 -0.003355386 0.01744837 0.003355386 0 0.00402651 0.003355386 -0.003355386 0 0.06509601 -0.003355386 0 0.0852288 -0.003355386 -0.00402651 0.0852288 -0.003355386 0.02013279 0.02348817 -0.003355386 0.02920757 0.001563291 -0.003355386 0.03271256 0.00940855 -0.003355465 0.01286002 0.1319504 -0.003355465 0.008041821 0.1187919 -0.003355465 0.0160838 0.1295378 -0.003355386 0 0.108046 -0.003355465 0.004818116 0.1212045 -0.003355386 0.02013279 0.03691012 -0.003355386 0.03511562 0.01811949 -0.003355386 0.02013279 0.05033198 -0.003355465 0.02894382 0.1534424 -0.003355465 0.02090183 0.1426964 -0.003355465 0.02412562 0.1402838 -0.003355465 0.04528898 0.1171574 -0.003355465 0.02013279 0.09059756 -0.003355465 0.04225072 0.06748107 -0.003355465 0.03216752 0.1510298 -0.003355465 0.04423041 0.1671485 -0.003355386 0.02460034 -0.00541596 -0.003355386 0.01744837 -0.0006711246 -0.003355386 0.01207961 -0.01677732 -0.003355386 0.0188911 -0.01152953 -0.003355386 0.00402651 -0.0006711246 -0.003355386 0.006887651 -0.01520187 -0.003355386 0.008563984 -0.01589339 -0.003355386 0.0161062 0.09059756 -0.003355386 0.00402651 0.003355386 -0.003355386 0.0161062 0.02348817 -0.003355386 0 0.03825229 -0.003355386 0.0161062 0.03691012 -0.003355386 0 -0.003355465 -0.003355386 0 0.01811949 -0.003355386 0.0003886827 -0.006960853 -0.003355386 0.0008899173 -0.008706066 -0.003355386 0.0001033445 -0.005167959 -0.003355386 0.001635692 -0.01036144 -0.003355386 0.00263698 -0.01187537 -0.003355386 0.005309319 -0.01430971 -0.003355386 -0.00402651 0.06509601 -0.003355386 -0.00402651 0.03825229 -0.003355386 -0.00402651 0.01811949 -0.003355386 0.01030192 -0.01641107 -0.003355386 0.02013279 0.06375384 -0.003355386 0.01744837 0.003355386 -0.003355386 0.0161062 0.05033198 -0.003355386 0.0161062 0.06375384 -0.003355386 0.02013279 0.0771757 -0.003355386 0.0161062 0.0771757 -0.003355386 0.003875468 -0.01320042 0.1060328 0 0.108046 -0.02550155 -0.003355386 0.108046 -0.02550155 0 0.108046 0.1060328 -0.003355386 0.108046 0.1014744 -0.003355386 0.06698787 0.1060328 -0.003355386 0.108046 0.1014744 0 0.06698787 0.09297399 0 0.0267222 0.1060328 0 0.108046 0.09297399 -0.003355386 0.0267222 0.08053125 0 -0.01275074 0.08053125 -0.003355386 -0.01275074 0.0006711005 0 0.0852288 -0.003355386 -0.003355386 0.0852288 0.0006711005 -0.003355386 0.0852288 -0.003355386 0 0.0852288 -0.003355386 0 0.0852288 -0.003355386 -0.003355386 0.06509601 -0.003355386 -0.003355386 0.0852288 -0.003355386 0 0.06509601 -0.003355386 0 0.06509601 0.0006711005 -0.003355386 0.06509601 -0.003355386 -0.003355386 0.06509601 0.0006711005 0 0.06509601 0.0006711005 0 0.06509601 0.0006711005 -0.003355386 0.0852288 0.0006711005 -0.003355386 0.06509601 0.0006711005 0 0.0852288 0.08388672 0 0.03825229 0.07986012 -0.003355386 0.03825229 0.08388672 -0.003355386 0.03825229 0.07986012 0 0.03825229 0.07986012 0 0.03825229 0.07986012 -0.003355386 0.01811949 0.07986012 -0.003355386 0.03825229 0.07986012 0 0.01811949 0.07986012 0 0.01811949 0.08388672 -0.003355386 0.01811949 0.07986012 -0.003355386 0.01811949 0.08388672 0 0.01811949 0.08388672 0 0.01811949 0.08388672 -0.003355386 0.03825229 0.08388672 -0.003355386 0.01811949 0.08388672 0 0.03825229 0.08388672 0 0.0852288 0.07986012 -0.003355386 0.0852288 0.08388672 -0.003355386 0.0852288 0.07986012 0 0.0852288 0.07986012 0 0.0852288 0.07986012 -0.003355386 0.06509601 0.07986012 -0.003355386 0.0852288 0.07986012 0 0.06509601 0.07986012 0 0.06509601 0.08388672 -0.003355386 0.06509601 0.07986012 -0.003355386 0.06509601 0.08388672 0 0.06509601 0.08388672 0 0.06509601 0.08388672 -0.003355386 0.0852288 0.08388672 -0.003355386 0.06509601 0.08388672 0 0.0852288 0.0006711005 0 0.03825229 -0.003355386 -0.003355386 0.03825229 0.0006711005 -0.003355386 0.03825229 -0.003355386 0 0.03825229 -0.003355386 0 0.03825229 -0.003355386 -0.003355386 0.01811949 -0.003355386 -0.003355386 0.03825229 -0.003355386 0 0.01811949 -0.003355386 0 0.01811949 0.0006711005 -0.003355386 0.01811949 -0.003355386 -0.003355386 0.01811949 0.0006711005 0 0.01811949 0.0006711005 0 0.01811949 0.0006711005 -0.003355386 0.03825229 0.0006711005 -0.003355386 0.01811949 0.0006711005 0 0.03825229 -0.01244273 0 0.0267222 0 -0.003355386 -0.01275074 0 0 -0.01275074 -0.01244273 -0.003355386 0.0267222 -0.02094328 0 0.06698787 -0.02094328 -0.003355386 0.06698787 -0.02550155 0 0.108046 -0.02550155 -0.003355386 0.108046 0.08388672 -0.003355386 0.01811949 0.08388672 -0.003355386 0.03825229 0.09297399 -0.003355386 0.0267222 0.0006711005 -0.003355386 0.06509601 0.0006711005 -0.003355386 0.03825229 -0.003355386 -0.003355386 0.06509601 0.0006711005 -0.003355386 0.0852288 0.07986012 -0.003355386 0.06509601 0.0006711005 -0.003355386 0.01811949 0.03320592 -0.003355386 -0.03677324 0.02631891 -0.003355386 -0.03512634 0.07219742 -0.003355386 -0.02414834 0.07986012 -0.003355386 0.01811949 0.07681138 -0.003355386 -0.01877637 0.06680242 -0.003355386 -0.02873485 0.04732524 -0.003355386 -0.03677324 0.05421224 -0.003355386 -0.03512634 0.06075797 -0.003355386 -0.03242457 0.04026558 -0.003355386 -0.03732756 0.01977319 -0.003355386 -0.03242457 0.008333743 -0.003355386 -0.02414834 0.01372882 -0.003355386 -0.02873485 0.003719867 -0.003355386 -0.01877637 0 -0.003355386 -0.01275074 -0.003355386 -0.003355386 0.01811949 -0.02550155 -0.003355386 0.108046 0.1060328 -0.003355386 0.108046 0.07986012 -0.003355386 0.0852288 0.1014744 -0.003355386 0.06698787 0.08388672 -0.003355386 0.06509601 0.08388672 -0.003355386 0.0852288 -0.02094328 -0.003355386 0.06698787 -0.003355386 -0.003355386 0.0852288 -0.003355386 -0.003355386 0.03825229 0.08053125 -0.003355386 -0.01275074 0.07986012 -0.003355386 0.03825229 -0.01244273 -0.003355386 0.0267222 0.06075797 -0.003355386 -0.03242457 0.06680242 -0.003355386 -0.02873485 0.06680242 0 -0.02873485 0.07219742 -0.003355386 -0.02414834 0.07219742 0 -0.02414834 0.07681138 0 -0.01877637 0.07681138 -0.003355386 -0.01877637 0.08053125 0 -0.01275074 0.08053125 -0.003355386 -0.01275074 0.06075797 0 -0.03242457 0.05421224 -0.003355386 -0.03512634 0.05421224 0 -0.03512634 0.04732524 0 -0.03677324 0.04732524 -0.003355386 -0.03677324 0.04026558 -0.003355386 -0.03732756 0.04026558 0 -0.03732756 0.07681138 0 -0.01877637 0.07986012 0 0.01811949 0.07219742 0 -0.02414834 0.1060328 0 0.108046 -0.02550155 0 0.108046 0.07986012 0 0.0852288 0.06680242 0 -0.02873485 0.06075797 0 -0.03242457 0.05421224 0 -0.03512634 0.0006711005 0 0.01811949 0.03320592 0 -0.03677324 0.04026558 0 -0.03732756 0.04732524 0 -0.03677324 0 0 -0.01275074 -0.003355386 0 0.01811949 0.01372882 0 -0.02873485 0.008333743 0 -0.02414834 0.003719867 0 -0.01877637 0.01977319 0 -0.03242457 0.02631891 0 -0.03512634 -0.02094328 0 0.06698787 -0.003355386 0 0.03825229 -0.003355386 0 0.06509601 0.07986012 0 0.03825229 0.08388672 0 0.03825229 0.07986012 0 0.06509601 -0.003355386 0 0.0852288 0.0006711005 0 0.0852288 0.0006711005 0 0.03825229 0.0006711005 0 0.06509601 0.08388672 0 0.01811949 0.09297399 0 0.0267222 0.08388672 0 0.0852288 0.1014744 0 0.06698787 0.08388672 0 0.06509601 0.08053125 0 -0.01275074 -0.01244273 0 0.0267222 0.02631891 -0.003355386 -0.03512634 0.03320592 0 -0.03677324 0.02631891 0 -0.03512634 0.04026558 0 -0.03732756 0.03320592 -0.003355386 -0.03677324 0.04026558 -0.003355386 -0.03732756 0.01372882 0 -0.02873485 0.008333743 0 -0.02414834 0.008333743 -0.003355386 -0.02414834 0.01372882 -0.003355386 -0.02873485 0.01977319 -0.003355386 -0.03242457 0.01977319 0 -0.03242457 0.003719867 0 -0.01877637 0 -0.003355386 -0.01275074 0.003719867 -0.003355386 -0.01877637 0 0 -0.01275074 0.08254446 0.008041821 0.1187919 0.08254446 0 0.0852288 0.08254446 0 0.108046 0.08254446 0.01286002 0.1319504 0.08254446 0.0160838 0.1295378 0.08254454 0 0.01811949 0.08254454 -0.00402651 0.03825229 0.08254454 0 0.03825229 0.08254446 0.004818116 0.1212045 0.08254454 0.01744837 -0.0006711246 0.08254454 0.02460034 -0.00541596 0.08254454 0.0188911 -0.01152953 0.08254446 0.02894382 0.1534424 0.08254446 0.02412562 0.1402838 0.08254446 0.02090183 0.1426964 0.08254446 0.04528898 0.1171574 0.08254446 0.04225072 0.06748107 0.08254446 0.02013279 0.09059756 0.08254446 0.03216752 0.1510298 0.08254446 0.0161062 0.0771757 0.08254446 0.0161062 0.09059756 0.08254446 0.04423041 0.1671485 0.08254454 0.02013279 0.02348817 0.08254454 0.02013279 0.03691012 0.08254454 0.03271256 0.00940855 0.08254454 0.02920757 0.001563291 0.08254454 0 0.06509601 0.08254454 0.01744837 0.003355386 0.08254454 0.0161062 0.05033198 0.08254454 0.0161062 0.03691012 0.08254454 0.0103016 -0.01641107 0.08254454 0.00402651 -0.0006711246 0.08254454 0.00402651 0.003355386 0.08254454 0.0161062 0.02348817 0.08254454 0.008560865 -0.01589596 0.08254454 0.003866909 -0.01319762 0.08254454 0.00530092 -0.0143109 0.08254454 0.006881811 -0.01520466 0.08254454 0.0008930352 -0.008699905 0.08254454 0 -0.003355465 0.08254454 0.0003918396 -0.006957492 0.08254454 0.0001033168 -0.005167718 0.08254454 0.002632099 -0.01186857 0.08254454 0.001636011 -0.01035352 0.08254454 -0.00402651 0.01811949 0.08254454 -0.00402651 0.0852288 0.08254454 -0.00402651 0.06509601 0.08254446 0.02013279 0.0771757 0.08254446 0.02013279 0.06375384 0.08254454 0.03511562 0.01811949 0.08254454 0.02013279 0.05033198 0.08254454 0.01207961 -0.01677732 0.08254446 0.0161062 0.06375384 0.08254446 0 0.108046 0.079189 0 0.0852288 0.079189 0 0.108046 0.08254446 0 0.0852288 0.079189 0.008041821 0.1187919 0.08254446 0 0.108046 0.079189 0 0.108046 0.08254446 0.008041821 0.1187919 0.079189 0.004818116 0.1212045 0.08254446 0.008041821 0.1187919 0.079189 0.008041821 0.1187919 0.08254446 0.004818116 0.1212045 0.079189 0.01286002 0.1319504 0.08254446 0.004818116 0.1212045 0.079189 0.004818116 0.1212045 0.08254446 0.01286002 0.1319504 0.079189 0.0160838 0.1295378 0.08254446 0.01286002 0.1319504 0.079189 0.01286002 0.1319504 0.08254446 0.0160838 0.1295378 0.079189 0.02412562 0.1402838 0.08254446 0.0160838 0.1295378 0.079189 0.0160838 0.1295378 0.08254446 0.02412562 0.1402838 0.079189 0.02090183 0.1426964 0.08254446 0.02412562 0.1402838 0.079189 0.02412562 0.1402838 0.08254446 0.02090183 0.1426964 0.079189 0.02894382 0.1534424 0.08254446 0.02090183 0.1426964 0.079189 0.02090183 0.1426964 0.08254446 0.02894382 0.1534424 0.079189 0.03216752 0.1510298 0.08254446 0.02894382 0.1534424 0.079189 0.02894382 0.1534424 0.08254446 0.03216752 0.1510298 0.079189 0.04423041 0.1671485 0.08254446 0.03216752 0.1510298 0.079189 0.03216752 0.1510298 0.08254446 0.04423041 0.1671485 0.08254446 0.04528898 0.1171574 0.08254446 0.04423041 0.1671485 0.079189 0.04528898 0.1171574 0.079189 0.04225072 0.06748107 0.079189 0.04423041 0.1671485 0.08254446 0.04225072 0.06748107 0.079189 0.03511562 0.01811949 0.08254454 0.03511562 0.01811949 0.08254454 0.03271256 0.00940855 0.07918908 0.02920757 0.001563291 0.08254454 0.02920757 0.001563291 0.07918908 0.02460034 -0.00541596 0.08254454 0.03511562 0.01811949 0.079189 0.03511562 0.01811949 0.079189 0.03271256 0.00940855 0.08254454 0.02460034 -0.00541596 0.07918908 0.0188911 -0.01152953 0.08254454 0.0188911 -0.01152953 0.07918908 0.01207961 -0.01677732 0.08254454 0.01207961 -0.01677732 0.08254454 0.00530092 -0.0143109 0.07918908 0.003875468 -0.01320042 0.08254454 0.003866909 -0.01319762 0.07918908 0.00263698 -0.01187537 0.08254454 0.006881811 -0.01520466 0.07918908 0.005309319 -0.01430971 0.07918908 0.006887651 -0.01520187 0.08254454 0.008560865 -0.01589596 0.07918908 0.008563984 -0.01589339 0.08254454 0.0103016 -0.01641107 0.07918908 0.01030192 -0.01641107 0.08254454 0.01207961 -0.01677732 0.07918908 0.01207961 -0.01677732 0.08254454 0.002632099 -0.01186857 0.07918908 0.001635692 -0.01036144 0.08254454 0.001636011 -0.01035352 0.08254454 0.0008930352 -0.008699905 0.07918908 0.0008899173 -0.008706066 0.07918908 0.0003886827 -0.006960853 0.08254454 0.0003918396 -0.006957492 0.07918908 0.0001033445 -0.005167959 0.08254454 0.0001033168 -0.005167718 0.07918908 0 -0.003355465 0.08254454 0 -0.003355465 0.07918908 0 0.01811949 0.08254454 0 -0.003355465 0.07918908 0 -0.003355465 0.08254454 0 0.01811949 0.08254454 -0.00402651 0.01811949 0.08254454 0 0.01811949 0.07918908 0 0.01811949 0.07918908 -0.00402651 0.01811949 0.07918908 -0.00402651 0.03825229 0.08254454 -0.00402651 0.01811949 0.07918908 -0.00402651 0.01811949 0.08254454 -0.00402651 0.03825229 0.08254454 0 0.03825229 0.07918908 -0.00402651 0.03825229 0.07918908 0 0.03825229 0.08254454 -0.00402651 0.03825229 0.079189 0 0.06509601 0.08254454 0 0.03825229 0.07918908 0 0.03825229 0.08254454 0 0.06509601 0.08254454 -0.00402651 0.06509601 0.08254454 0 0.06509601 0.079189 0 0.06509601 0.079189 -0.00402651 0.06509601 0.079189 -0.00402651 0.0852288 0.08254454 -0.00402651 0.06509601 0.079189 -0.00402651 0.06509601 0.08254454 -0.00402651 0.0852288 0.08254446 0 0.0852288 0.079189 -0.00402651 0.0852288 0.079189 0 0.0852288 0.08254454 -0.00402651 0.0852288 0.07918908 0.0161062 0.02348817 0.08254454 0.0161062 0.03691012 0.079189 0.0161062 0.03691012 0.08254454 0.0161062 0.02348817 0.07918908 0.02013279 0.02348817 0.08254454 0.02013279 0.02348817 0.08254454 0.0161062 0.02348817 0.07918908 0.0161062 0.02348817 0.07918908 0.02013279 0.02348817 0.08254454 0.02013279 0.03691012 0.08254454 0.02013279 0.02348817 0.079189 0.02013279 0.03691012 0.079189 0.0161062 0.03691012 0.08254454 0.02013279 0.03691012 0.079189 0.02013279 0.03691012 0.08254454 0.0161062 0.03691012 0.079189 0.0161062 0.05033198 0.08254446 0.0161062 0.06375384 0.079189 0.0161062 0.06375384 0.08254454 0.0161062 0.05033198 0.079189 0.02013279 0.05033198 0.08254454 0.02013279 0.05033198 0.08254454 0.0161062 0.05033198 0.079189 0.0161062 0.05033198 0.079189 0.02013279 0.05033198 0.08254446 0.02013279 0.06375384 0.08254454 0.02013279 0.05033198 0.079189 0.02013279 0.06375384 0.079189 0.0161062 0.06375384 0.08254446 0.02013279 0.06375384 0.079189 0.02013279 0.06375384 0.08254446 0.0161062 0.06375384 0.079189 0.0161062 0.0771757 0.08254446 0.0161062 0.09059756 0.079189 0.0161062 0.09059756 0.08254446 0.0161062 0.0771757 0.079189 0.02013279 0.0771757 0.08254446 0.02013279 0.0771757 0.08254446 0.0161062 0.0771757 0.079189 0.0161062 0.0771757 0.079189 0.02013279 0.0771757 0.08254446 0.02013279 0.09059756 0.08254446 0.02013279 0.0771757 0.079189 0.02013279 0.09059756 0.079189 0.0161062 0.09059756 0.08254446 0.02013279 0.09059756 0.079189 0.02013279 0.09059756 0.08254446 0.0161062 0.09059756 0.07918908 0.00402651 0.003355386 0.08254454 0.00402651 -0.0006711246 0.08254454 0.00402651 0.003355386 0.07918908 0.00402651 -0.0006711246 0.07918908 0.01744837 -0.0006711246 0.08254454 0.01744837 -0.0006711246 0.08254454 0.00402651 -0.0006711246 0.07918908 0.00402651 -0.0006711246 0.07918908 0.01744837 0.003355386 0.08254454 0.01744837 0.003355386 0.08254454 0.01744837 -0.0006711246 0.07918908 0.01744837 -0.0006711246 0.07918908 0.00402651 0.003355386 0.08254454 0.01744837 0.003355386 0.07918908 0.01744837 0.003355386 0.08254454 0.00402651 0.003355386 0.079189 0 0.06509601 0.079189 0 0.0852288 0.079189 -0.00402651 0.0852288 0.07918908 0.02013279 0.02348817 0.07918908 0.02920757 0.001563291 0.079189 0.03271256 0.00940855 0.079189 0.01286002 0.1319504 0.079189 0.008041821 0.1187919 0.079189 0.0160838 0.1295378 0.079189 0 0.108046 0.079189 0.004818116 0.1212045 0.079189 0.02013279 0.03691012 0.079189 0.03511562 0.01811949 0.079189 0.02013279 0.05033198 0.079189 0.02894382 0.1534424 0.079189 0.02090183 0.1426964 0.079189 0.02412562 0.1402838 0.079189 0.04528898 0.1171574 0.079189 0.02013279 0.09059756 0.079189 0.04225072 0.06748107 0.079189 0.03216752 0.1510298 0.079189 0.04423041 0.1671485 0.07918908 0.02460034 -0.00541596 0.07918908 0.01744837 -0.0006711246 0.07918908 0.01207961 -0.01677732 0.07918908 0.0188911 -0.01152953 0.07918908 0.00402651 -0.0006711246 0.07918908 0.006887651 -0.01520187 0.07918908 0.008563984 -0.01589339 0.079189 0.0161062 0.09059756 0.07918908 0.00402651 0.003355386 0.07918908 0.0161062 0.02348817 0.07918908 0 0.03825229 0.079189 0.0161062 0.03691012 0.07918908 0 -0.003355465 0.07918908 0 0.01811949 0.07918908 0.0003886827 -0.006960853 0.07918908 0.0008899173 -0.008706066 0.07918908 0.0001033445 -0.005167959 0.07918908 0.001635692 -0.01036144 0.07918908 0.00263698 -0.01187537 0.07918908 0.005309319 -0.01430971 0.079189 -0.00402651 0.06509601 0.07918908 -0.00402651 0.03825229 0.07918908 -0.00402651 0.01811949 0.07918908 0.01030192 -0.01641107 0.079189 0.02013279 0.06375384 0.07918908 0.01744837 0.003355386 0.079189 0.0161062 0.05033198 0.079189 0.0161062 0.06375384 0.079189 0.02013279 0.0771757 0.079189 0.0161062 0.0771757 0.07918908 0.003875468 -0.01320042 0.1060328 0 0.108046 -0.02550155 -0.002686419 0.1100565 0.1060328 -0.002686419 0.1100565 -0.02550155 0 0.108046 0.10607 0.01320314 0.1256887 0.1060328 0 0.108046 0.10607 0.01051664 0.1276991 0.1029381 0.0233837 0.1448926 0.1060328 -0.002686419 0.1100565 0.1029381 0.02607019 0.1428822 0.09663745 0.03591459 0.161637 0.09663745 0.038601 0.1596265 0.08973499 0.04392305 0.1667379 0.08748673 0.04216615 0.1699906 0.08748673 0.04485266 0.1679801 0.08973539 0.04123647 0.1687481 0.09166062 0.04282304 0.165268 0.09166102 0.04013622 0.167278 0.09340606 0.04154056 0.1635543 0.09340647 0.03885372 0.1655643 0.09505903 0.0401011 0.1616308 0.09505944 0.03741428 0.1636408 0.09663745 0.038601 0.1596265 0.09663745 0.03591459 0.161637 0.08504985 0.04289896 0.1709697 0.08504944 0.04558563 0.1689594 0.08243726 0.04348681 0.1717553 0.07969852 0.04396488 0.1723942 0.08243662 0.04617346 0.169745 0.07678346 0.04438209 0.1729516 0.07969789 0.04665147 0.1703837 0.07678274 0.04706868 0.1709413 0.07382031 0.04476065 0.1734575 0.07382031 0.04744716 0.1714469 0.006710931 0.04744716 0.1714469 0.07382031 0.04744716 0.1714469 0.07382031 0.04476065 0.1734575 0.006710931 0.04476065 0.1734575 -0.00532412 0.04279688 0.1708334 -0.00532412 0.04548338 0.1688229 -0.001688413 0.04644251 0.1701045 -0.001688413 0.04375609 0.172115 -0.008583744 0.04153319 0.1691448 0.002323137 0.04709716 0.1709793 0.002323137 0.04441065 0.1729897 0.006710931 0.04744716 0.1714469 0.006710931 0.04476065 0.1734575 -0.008583744 0.0442197 0.1671343 -0.01146737 0.03996485 0.1670491 -0.01146737 0.04265136 0.1650386 -0.01397474 0.03809197 0.1645464 -0.01397474 0.04077846 0.162536 -0.0161062 0.03591459 0.161637 -0.0161062 0.038601 0.1596265 -0.02240688 0.02607019 0.1428822 -0.0161062 0.038601 0.1596265 -0.02240688 0.0233837 0.1448926 -0.02553867 0.01051664 0.1276991 -0.0161062 0.03591459 0.161637 -0.02553867 0.01320314 0.1256887 -0.02550155 -0.002686419 0.1100565 -0.02550155 0 0.108046 0.08388672 0.0133973 0.1315484 0.08388672 0.01608371 0.1295379 0.07986012 0.01608371 0.1295379 0.07986012 0.0133973 0.1315484 0.08388672 0.005355401 0.1208024 0.08388672 0.01608371 0.1295379 0.08388672 0.0133973 0.1315484 0.08388672 0.008041821 0.1187919 0.07986012 0.005355401 0.1208024 0.08388672 0.008041821 0.1187919 0.08388672 0.005355401 0.1208024 0.07986012 0.008041821 0.1187919 0.07986012 0.0133973 0.1315484 0.07986012 0.01608371 0.1295379 0.07986012 0.008041821 0.1187919 0.07986012 0.005355401 0.1208024 0.0006711005 0.0133973 0.1315484 0.0006711005 0.01608371 0.1295379 -0.003355386 0.01608371 0.1295379 -0.003355386 0.0133973 0.1315484 0.0006711005 0.005355401 0.1208024 0.0006711005 0.01608371 0.1295379 0.0006711005 0.0133973 0.1315484 0.0006711005 0.008041821 0.1187919 -0.003355386 0.005355401 0.1208024 0.0006711005 0.008041821 0.1187919 0.0006711005 0.005355401 0.1208024 -0.003355386 0.008041821 0.1187919 -0.003355386 0.0133973 0.1315484 -0.003355386 0.01608371 0.1295379 -0.003355386 0.008041821 0.1187919 -0.003355386 0.005355401 0.1208024 0.08388672 0.02948101 0.1530401 0.08388672 0.03216752 0.1510298 0.07986012 0.03216752 0.1510298 0.07986012 0.02948101 0.1530401 0.08388672 0.02143919 0.1422942 0.08388672 0.03216752 0.1510298 0.08388672 0.02948101 0.1530401 0.08388672 0.02412562 0.1402838 0.07986012 0.02143919 0.1422942 0.08388672 0.02412562 0.1402838 0.08388672 0.02143919 0.1422942 0.07986012 0.02412562 0.1402838 0.07986012 0.02948101 0.1530401 0.07986012 0.03216752 0.1510298 0.07986012 0.02412562 0.1402838 0.07986012 0.02143919 0.1422942 0.0006711005 0.02948101 0.1530401 0.0006711005 0.03216752 0.1510298 -0.003355386 0.03216752 0.1510298 -0.003355386 0.02948101 0.1530401 0.0006711005 0.02143919 0.1422942 0.0006711005 0.03216752 0.1510298 0.0006711005 0.02948101 0.1530401 0.0006711005 0.02412562 0.1402838 -0.003355386 0.02143919 0.1422942 0.0006711005 0.02412562 0.1402838 0.0006711005 0.02143919 0.1422942 -0.003355386 0.02412562 0.1402838 -0.003355386 0.02948101 0.1530401 -0.003355386 0.03216752 0.1510298 -0.003355386 0.02412562 0.1402838 -0.003355386 0.02143919 0.1422942 -0.00532412 0.04279688 0.1708334 -0.001688413 0.04375609 0.172115 0.02208488 0.03246824 0.1570318 0.09505944 0.03741428 0.1636408 0.07986012 0.02948101 0.1530401 0.09340647 0.03885372 0.1655643 -0.008583744 0.04153319 0.1691448 -0.01397474 0.03809197 0.1645464 0.0006711005 0.02948101 0.1530401 -0.0161062 0.03591459 0.161637 -0.01146737 0.03996485 0.1670491 0.01487714 0.01541123 0.1342394 0.0006711005 0.0133973 0.1315484 0.0137881 0.01798694 0.1376812 0.01487635 0.02585739 0.148198 0.0006711005 0.02143919 0.1422942 0.08388672 0.0133973 0.1315484 0.08388672 0.02143919 0.1422942 0.1029381 0.0233837 0.1448926 0.01378802 0.02328226 0.1447571 0.01342186 0.02063495 0.1412196 0.07986012 0.02143919 0.1422942 0.07986012 0.0133973 0.1315484 0.0424912 0.004606915 0.1198023 0.1060328 -0.002686419 0.1100565 0.03805757 0.004606035 0.1198011 -0.003355386 0.02948101 0.1530401 0.03804884 0.0366638 0.1626381 0.03367585 0.03622659 0.1620538 0.006710931 0.04476065 0.1734575 0.08504985 0.04289896 0.1709697 0.08748673 0.04216615 0.1699906 0.05844636 0.03246824 0.1570318 0.07969852 0.04396488 0.1723942 0.05494777 0.03409978 0.1592119 0.07678346 0.04438209 0.1729516 0.04248231 0.0366638 0.1626381 0.07382031 0.04476065 0.1734575 0.04685531 0.03622659 0.1620538 0.08243726 0.04348681 0.1717553 0.05104863 0.0353641 0.1609013 0.0006711005 0.005355401 0.1208024 0.02948974 0.005904204 0.1215358 0.03368393 0.005042437 0.1203842 0.08388672 0.02948101 0.1530401 0.01908518 0.01075392 0.1280162 0.07986012 0.005355401 0.1208024 0.05845172 0.008805346 0.1254124 0.06145286 0.01075968 0.1280239 0.10607 0.01051664 0.1276991 0.08388672 0.005355401 0.1208024 0.05105654 0.005908445 0.1215414 0.0549545 0.007173414 0.1232317 0.04686403 0.005045077 0.1203878 -0.02550155 -0.002686419 0.1100565 0.02558931 0.007168134 0.1232247 0.02208928 0.008799506 0.1254046 0.01665908 0.01297802 0.1309881 -0.02240688 0.0233837 0.1448926 -0.003355386 0.0133973 0.1315484 -0.02553867 0.01051664 0.1276991 0.01665716 0.02828997 0.1514485 0.09166102 0.04013622 0.167278 0.08973539 0.04123647 0.1687481 0.01908213 0.03051391 0.1544203 0.02558338 0.03409978 0.1592119 0.002323137 0.04441065 0.1729897 0.02948261 0.0353641 0.1609013 0.06387401 0.02828997 0.1514485 0.0614491 0.03051391 0.1544203 0.09663745 0.03591459 0.161637 0.06565482 0.02585739 0.148198 -0.003355386 0.005355401 0.1208024 0.06674323 0.02328226 0.1447571 0.06565577 0.01541508 0.1342445 0.06674307 0.01798694 0.1376812 0.06710939 0.02063495 0.1412196 0.06387617 0.01298322 0.130995 -0.003355386 0.02143919 0.1422942 0.05494185 0.009854554 0.1212142 0.0510415 0.008590705 0.1195254 0.07986012 0.008041821 0.1187919 0.08388672 0.008041821 0.1187919 0.1060328 0 0.108046 0.10607 0.01320314 0.1256887 0.0006711005 0.008041821 0.1187919 0.01907838 0.01344618 0.1260134 0.0006711005 0.01608371 0.1295379 0.016655 0.01566964 0.1289846 0.01487546 0.01810157 0.1322341 0.07678274 0.04706868 0.1709413 0.07382031 0.04744716 0.1714469 0.05494777 0.03678619 0.1572014 0.08748673 0.04485266 0.1679801 0.08504944 0.04558563 0.1689594 0.05844636 0.03515466 0.1550213 0.08243662 0.04617346 0.169745 0.07969789 0.04665147 0.1703837 0.04248231 0.03935029 0.1606276 0.04685531 0.03891309 0.1600434 0.05104863 0.0380506 0.1588908 0.03804884 0.03935029 0.1606276 0.006710931 0.04744716 0.1714469 0.03367585 0.03891309 0.1600434 0.06674307 0.02067343 0.1356709 0.07986012 0.01608371 0.1295379 0.07986012 0.02412562 0.1402838 -0.001688413 0.04644251 0.1701045 -0.00532412 0.04548338 0.1688229 0.02208488 0.03515466 0.1550213 0.0006711005 0.02412562 0.1402838 0.0137881 0.02067343 0.1356709 -0.01146737 0.04265136 0.1650386 -0.008583744 0.0442197 0.1671343 0.0006711005 0.03216752 0.1510298 -0.01397474 0.04077846 0.162536 -0.0161062 0.038601 0.1596265 0.01665716 0.03097647 0.1494381 0.01487635 0.02854389 0.1461876 0.1029381 0.02607019 0.1428822 0.08388672 0.01608371 0.1295379 0.06565401 0.01809765 0.1322289 0.07986012 0.03216752 0.1510298 0.09505903 0.0401011 0.1616308 0.09340606 0.04154056 0.1635543 -0.003355386 0.01608371 0.1295379 -0.02553867 0.01320314 0.1256887 -0.003355386 0.008041821 0.1187919 0.08388672 0.03216752 0.1510298 0.09663745 0.038601 0.1596265 -0.02550155 0 0.108046 0.04684731 0.007728858 0.1183738 -0.02240688 0.02607019 0.1428822 0.06387215 0.01566451 0.1289777 -0.003355386 0.03216752 0.1510298 0.03366714 0.007731578 0.1183773 0.02557667 0.009859915 0.1212212 0.02207952 0.01149185 0.123402 0.06144597 0.01344041 0.1260057 0.05844188 0.01148593 0.1233941 0.04247359 0.007292534 0.1177907 0.03803997 0.007293415 0.1177919 0.02947469 0.008594865 0.1195309 0.01342186 0.02332145 0.1392091 0.01378802 0.02596875 0.1427466 -0.003355386 0.02412562 0.1402838 0.09166062 0.04282304 0.165268 0.08973499 0.04392305 0.1667379 0.01908213 0.03320032 0.1524098 0.02558338 0.03678619 0.1572014 0.002323137 0.04709716 0.1709793 0.02948261 0.0380506 0.1588908 0.06387401 0.03097647 0.1494381 0.0614491 0.03320032 0.1524098 0.06565482 0.02854389 0.1461876 0.06674323 0.02596875 0.1427466 0.06710939 0.02332145 0.1392091 0.08388672 0.02412562 0.1402838 0.01378802 0.02328226 0.1447571 0.01342186 0.02332145 0.1392091 0.01342186 0.02063495 0.1412196 0.01908213 0.03051391 0.1544203 0.01665716 0.03097647 0.1494381 0.01665716 0.02828997 0.1514485 0.01487635 0.02585739 0.148198 0.01487635 0.02854389 0.1461876 0.01378802 0.02596875 0.1427466 0.02558338 0.03678619 0.1572014 0.02558338 0.03409978 0.1592119 0.02948261 0.0353641 0.1609013 0.01908213 0.03320032 0.1524098 0.02208488 0.03246824 0.1570318 0.02208488 0.03515466 0.1550213 0.03804884 0.0366638 0.1626381 0.04248231 0.0366638 0.1626381 0.03804884 0.03935029 0.1606276 0.03367585 0.03622659 0.1620538 0.03367585 0.03891309 0.1600434 0.02948261 0.0380506 0.1588908 0.05494777 0.03409978 0.1592119 0.05104863 0.0380506 0.1588908 0.05104863 0.0353641 0.1609013 0.04685531 0.03891309 0.1600434 0.04248231 0.03935029 0.1606276 0.04685531 0.03622659 0.1620538 0.0614491 0.03320032 0.1524098 0.0614491 0.03051391 0.1544203 0.06387401 0.02828997 0.1514485 0.05494777 0.03678619 0.1572014 0.05844636 0.03246824 0.1570318 0.05844636 0.03515466 0.1550213 0.06674323 0.02328226 0.1447571 0.06710939 0.02063495 0.1412196 0.06674323 0.02596875 0.1427466 0.06565482 0.02585739 0.148198 0.06565482 0.02854389 0.1461876 0.06387401 0.03097647 0.1494381 0.06387617 0.01298322 0.130995 0.06565401 0.01809765 0.1322289 0.06565577 0.01541508 0.1342445 0.06674307 0.02067343 0.1356709 0.06710939 0.02332145 0.1392091 0.06674307 0.01798694 0.1376812 0.05844188 0.01148593 0.1233941 0.05845172 0.008805346 0.1254124 0.0549545 0.007173414 0.1232317 0.06387215 0.01566451 0.1289777 0.06145286 0.01075968 0.1280239 0.06144597 0.01344041 0.1260057 0.04686403 0.005045077 0.1203878 0.0424912 0.004606915 0.1198023 0.04684731 0.007728858 0.1183738 0.05105654 0.005908445 0.1215414 0.0510415 0.008590705 0.1195254 0.05494185 0.009854554 0.1212142 0.03805757 0.004606035 0.1198011 0.03368393 0.005042437 0.1203842 0.03803997 0.007293415 0.1177919 0.04247359 0.007292534 0.1177907 0.03366714 0.007731578 0.1183773 0.02948974 0.005904204 0.1215358 0.02558931 0.007168134 0.1232247 0.02947469 0.008594865 0.1195309 0.02208928 0.008799506 0.1254046 0.02557667 0.009859915 0.1212212 0.02207952 0.01149185 0.123402 0.01908518 0.01075392 0.1280162 0.01665908 0.01297802 0.1309881 0.01907838 0.01344618 0.1260134 0.01487714 0.01541123 0.1342394 0.016655 0.01566964 0.1289846 0.01487546 0.01810157 0.1322341 0.0137881 0.01798694 0.1376812 0.0137881 0.02067343 0.1356709</float_array>
          <technique_common>
            <accessor source="#ID4_018-mesh-positions-array" count="1506" stride="3">
              <param name="X" type="float"/>
              <param name="Y" type="float"/>
              <param name="Z" type="float"/>
            </accessor>
          </technique_common>
        </source>
        <source id="ID4_018-mesh-normals">
          <float_array id="ID4_018-mesh-normals-array" count="1899">0 0 -1 -1 0 0 0 -1 0 0 1 0 1 0 0 0 -1 0 0 0 1 0 0 1 0 0 1 0 -1 3.12944e-7 0 -1 -2.15984e-7 0 -1 -4.40965e-7 0 -1 -1.79376e-7 0 -1 -8.81934e-7 0 -1 8.81934e-7 0 -1 0 0 -1 4.40965e-7 0 1 2.15984e-7 0 1 -1.4197e-7 0 1 -1.35682e-7 1 1.62921e-7 0 1 1.62921e-7 0 1 1.62921e-7 0 1 1.6292e-7 0 1 1.62921e-7 0 1 1.62921e-7 0 1 1.62921e-7 0 1 1.62921e-7 0 1 1.62921e-7 0 1 1.62921e-7 0 1 1.62921e-7 0 1 1.62921e-7 0 1 1.62921e-7 0 1 1.62921e-7 0 1 1.62921e-7 0 1 1.62921e-7 0 1 1.62921e-7 0 1 1.62921e-7 0 1 1.6292e-7 0 1 1.62919e-7 0 1 1.6292e-7 0 1 1.6292e-7 0 1 1.62921e-7 0 1 1.62909e-7 0 1 1.62917e-7 0 1 1.6292e-7 0 1 1.62921e-7 0 1 1.62921e-7 0 1 1.62921e-7 0 1 1.62922e-7 0 1 1.6292e-7 0 1 1.62921e-7 0 1 1.62921e-7 0 1 1.62921e-7 0 1 1.62921e-7 0 1 1.62921e-7 0 1 1.62921e-7 0 1 1.62921e-7 0 1 1.62921e-7 0 1 1.62921e-7 0 1 1.62921e-7 0 1 1.62921e-7 0 1 1.62921e-7 0 1 1.62921e-7 0 1 1.62921e-7 0 1 1.62921e-7 0 1 1.62921e-7 0 1 1.62921e-7 0 1 1.62921e-7 0 1 1.62921e-7 0 1 1.62921e-7 0 1 1.62921e-7 0 1 1.62921e-7 0 1 1.62921e-7 0 1 1.62921e-7 0 1 1.62921e-7 0 1 1.6292e-7 0 1 1.6292e-7 0 1.62921e-7 -1 0 1.6292e-7 -1 0 2.03359e-6 -0.800627 0.5991632 -1.3595e-6 -0.800627 0.5991631 6.51151e-7 -0.5991636 -0.8006267 -4.27945e-7 -0.5991634 -0.8006268 1.29254e-6 -0.8006257 0.599165 0 -0.8006257 0.5991649 0 0.59916 0.8006293 0 0.5991602 0.8006293 0 -0.8006296 0.5991597 0 -0.8006293 0.59916 0 -0.5991612 -0.8006286 0 -0.5991621 -0.8006279 0 -0.8006247 0.5991662 0 0.599177 0.8006168 0 0.5991783 0.8006156 0 -0.800625 0.5991658 0 -0.8006251 0.5991657 0 0.9998014 -0.01992887 0 0.9997764 0.02114975 0 0.9947724 -0.1021171 0 0.9897162 -0.1430448 0 0.9411889 -0.3378807 0 0.8767161 -0.4810082 0 0.7854714 -0.6188979 0 0.9639977 -0.2659104 0 0.6728187 -0.7398076 0 0.6103212 -0.7921541 -0.00137335 -0.5540164 -0.8325048 -5.18831e-4 -0.674877 -0.7379302 -0.001403868 -0.6735042 -0.7391822 -4.27265e-4 -0.7852826 -0.6191375 -0.001678526 -0.5533747 -0.8329308 -0.00149542 -0.4372732 -0.8993276 -0.001373291 -0.4373959 -0.899268 -6.7142e-4 -0.3335431 -0.9427347 -0.00112915 -0.3327784 -0.9430044 -3.35713e-4 -0.2432392 -0.9699662 0 -0.2438495 -0.9698132 0 -0.2017588 -0.9794353 0 -0.2017941 -0.979428 6.10388e-4 -0.7866677 -0.6173766 0.001403868 -0.8766298 -0.4811636 7.01946e-4 -0.8759062 -0.4824809 0.001403868 -0.9390096 -0.3438884 0.001312315 -0.9388966 -0.344197 0.001190185 -0.9761526 -0.2170822 7.62964e-4 -0.9759839 -0.2178415 0 -0.9941335 -0.1081601 3.66224e-4 -0.9942065 -0.1074867 0 -0.9983789 -0.0569185 1.62921e-7 -1 0 1.62921e-7 -1 0 4.73972e-7 0 -1 1.86265e-7 -1 0 1.86265e-7 -1 0 3.88051e-6 0 1 -1.94026e-6 0 1 1.60566e-7 -1 0 1.62921e-7 -1 0 2.49325e-6 0 -1 1.86265e-7 -1 0 1.86264e-7 -1 0 0 1 -1.56816e-7 0 -1 1.2326e-7 0 1 -1.56816e-7 0 -1 1.2326e-7 0 1 -1.56816e-7 0 -1 -1.67778e-7 -1.86265e-7 1 -1.36217e-7 -1.86264e-7 1 1.21266e-7 0 0 1 0 -1 1.45632e-7 0 -1 1.62982e-7 1.45519e-7 0 -1 -1 0 0 -1 -1.54944e-7 0 -1 -1.21265e-7 0 -1 -2.50014e-7 0 -1 -2.42532e-7 0 -1 -1.95538e-7 0 -1 -2.12213e-7 0 -1 -1.68191e-7 0 -1 -1.74678e-7 0 -1 -1.21268e-7 0 -1 -1.49228e-7 0 -1 -1.37394e-7 0 -1 -1.5526e-7 0 -1 -1.59507e-7 0 -1 -1.20571e-7 0 -1 -1.85097e-7 0 -1 -2.3793e-7 -1.33581e-7 -1 -1.58111e-7 0 -1 0 0 -1 -1.7053e-7 0 -1 -1.67191e-7 0 -1 -4.0422e-7 0 -1 0 0 -1 0 0 -1 -4.93675e-6 -2.68675e-7 -1 -5.85942e-7 0 -1 0 -1.4001e-7 -1 -4.91948e-7 0 -1 0 0 -1 -3.23376e-7 0 -1 -1.61688e-7 0 -1 0 0 -1 -1.86132e-7 0 -1 0 0 -1 -2.27576e-7 0 -1 -1.95347e-7 0 -1 -1.44003e-7 0 -1 -2.42532e-7 0 -1 -1.54535e-7 0 -1 -1.76612e-7 0 -1 -1.81899e-7 0 -1 -2.0211e-7 0 -1 -1.51582e-7 0 -1 0 0 -1 0 0 -1 -1.47001e-7 0 -1 -1.47001e-7 0 -1 -1.81899e-7 0 -1 -1.25471e-7 0 -1 -1.81899e-7 0 -1 -2.42532e-7 0 -1 0 -1.2641e-7 -1 -2.3471e-7 0 -1 0 -1.634e-7 -1 -1.61688e-7 0 -1 -4.0422e-7 0 -1 -1.94026e-7 0 -1 -7.22855e-7 -1.20953e-7 -1 4.16949e-7 -1.23121e-7 0.9873372 0 -0.1586356 0.9938953 0 -0.1103277 0.9672341 0 -0.2538864 0.953738 0 -0.3006391 -0.9672341 0 -0.2538864 -0.953738 0 -0.3006391 -0.9873372 0 -0.1586356 -0.9938953 0 -0.1103277 0 -1 0 0 -1 0 0 -1 0 0 -1 0 0 -1 0 0 -1 0 0 -1 0 0 -1 0 0 -1 0 0 -1 0 0 -1 0 0 -1 1.24833e-7 0 -1 0 0 -1 0 0 -1 0 0.4526621 0 -0.8916822 0.5861556 0 -0.8101986 0.7053192 0 -0.70889 0.807229 0 -0.5902385 0.8509156 0 -0.5253025 0.3079942 0 -0.9513883 0.1558905 0 -0.9877743 0.0782507 0 -0.9969338 0 1 0 0 1 0 0 1 0 0 1 0 -0.3079942 0 -0.9513883 -0.1558905 0 -0.9877743 -0.0782507 0 -0.9969338 -0.5861556 0 -0.8101986 -0.7053192 0 -0.70889 -0.4526621 0 -0.8916822 -0.807229 0 -0.5902385 -0.8509156 0 -0.5253025 1 -9.70118e-7 2.98258e-7 1 0 2.48353e-7 1 3.88051e-6 2.98257e-7 1 9.70116e-7 2.98256e-7 1 3.58808e-7 0 1 0 0 1 0 2.98252e-7 1 4.85064e-7 0 1 6.764e-7 0 1 0 2.76086e-7 1 0 2.48353e-7 1 8.34518e-7 1.60228e-7 1 -8.67786e-6 0 1 4.67512e-6 0 1 4.38429e-6 0 1 7.90433e-6 0 1 0 1.28403e-7 1 8.43257e-7 0 1 2.58701e-6 2.48353e-7 1 0 3.72529e-7 1 0 0 1 5.88004e-7 0 1 0 1.28662e-7 1 6.85264e-6 0 1 1.04287e-6 0 1 9.70128e-7 3.72529e-7 1 0 1.74153e-7 1 -1.76612e-7 0 1 0 0 1 -3.23376e-6 0 1 0 2.48352e-7 1 1.25179e-6 2.13448e-7 1 -2.58701e-6 2.48353e-7 1 0 2.48353e-7 1.62921e-7 -1 0 1.62921e-7 -1 0 2.03359e-6 -0.8006272 0.5991629 -1.3595e-6 -0.8006263 0.599164 6.5115e-7 -0.5991641 -0.8006263 -4.27945e-7 -0.5991628 -0.8006273 1.29253e-6 -0.8006266 0.5991637 0 -0.8006268 0.5991634 0 0.5991589 0.8006302 0 0.5991603 0.8006291 0 -0.8006296 0.5991598 0 -0.8006294 0.59916 0 -0.5991603 -0.8006291 0 -0.599162 -0.800628 0 -0.8006247 0.5991663 0 0.5991778 0.8006161 0 0.5991771 0.8006167 0 -0.8006254 0.5991652 1.62921e-7 -1 0 1.6292e-7 -1 0 4.73972e-7 0 -1 1.86264e-7 -1 0 1.86265e-7 -1 0 3.88051e-6 0 1 -1.94025e-6 0 1 1.60566e-7 -1 0 1.6292e-7 -1 0 2.49325e-6 0 -1 1.86264e-7 -1 0 0 1 -1.45519e-7 0 -1 2.91037e-7 0 1 0 0 -1 -1.86264e-7 0 1 1.45519e-7 -1.86265e-7 1 0 -1.86264e-7 1 0 0 0 1 1.45519e-7 0 -1 -1 -7.08315e-7 -3.065e-7 -1 0 -2.98257e-7 -1 5.7146e-7 -2.19134e-7 -1 0 -2.98257e-7 -1 -1.45517e-6 -2.98256e-7 -1 -3.58808e-7 0 -1 3.49355e-7 -1.59412e-7 -1 0 -2.98252e-7 -1 6.764e-7 0 -1 -2.48416e-6 -3.72529e-7 -1 -2.57219e-6 0 -1 5.85673e-6 0 -1 -8.43257e-7 0 -1 0 -1.60228e-7 -1 -4.85064e-7 -3.72529e-7 -1 0 -1.28403e-7 -1 1.21266e-6 -2.32831e-7 -1 -7.8988e-5 0 -1 -9.37507e-6 0 -1 7.87118e-6 0 -1 0 -1.48525e-7 -1 -1.96885e-7 0 -1 -3.03165e-7 0 -1 0 -3.72529e-7 -1 7.06447e-7 0 -1 0 -1.86264e-7 -1 -6.46751e-7 0 -1 9.70127e-7 0 -1 0 0 -1 0 0 -1 0 -3.72529e-7 -1 0 -1.28662e-7 -1 0 -3.72529e-7 -1 -2.71864e-7 0 -1 1.92763e-6 -2.9049e-7 -1 0 0 -1 -7.76102e-7 0 -1 -1.33424e-5 0 0 -0.5991635 -0.8006267 0 -0.5991635 -0.8006268 0.9974429 0.04281771 0.05722254 0.9999987 -0.001007139 -0.001342833 0.9761807 0.1299804 0.1737141 0.9574964 0.1728278 0.2309356 0.6309616 0.4648436 0.6211344 0.5094933 0.5155667 0.6889178 0.5094826 0.5155558 0.6889337 0.630989 0.4648107 0.6211313 0.7340046 0.4069054 0.5437511 0.7339814 0.40694 0.5437566 0.8000907 0.3594243 0.4802803 0.8350393 0.3296697 0.4404854 0.8459309 0.3195359 0.4269635 0.4006255 0.5489489 0.7335901 0.3158705 0.5684754 0.7596458 0.2560837 0.5791868 0.7739275 0.3158431 0.5684809 0.7596531 0.2560552 0.5791913 0.7739337 0.2204428 0.5844193 0.7809348 0.2204389 0.5844393 0.7809209 0.2085064 0.5859969 0.7830281 0 0.599163 0.8006272 0 0.5991638 0.8006265 -0.4746044 0.5273721 0.7047193 -0.3337907 0.5647921 0.7547143 -0.6097047 0.4749031 0.634608 -0.1977978 0.5873202 0.7848128 -0.1319345 0.5939344 0.7936215 -0.7283518 0.4105505 0.548591 -0.8234945 0.3399208 0.4542145 -0.8625881 0.3031144 0.4050477 -0.9761807 0.1299804 0.1737141 -0.9574964 0.1728278 0.2309356 -0.9974429 0.04281771 0.05722254 -0.9999987 -0.001007139 -0.001342833 0 -0.5991623 -0.8006277 0 -0.5991616 -0.8006281 -1 1.16415e-6 0 0 0.5991644 0.800626 0 0.5991634 0.8006269 0 -0.5991618 -0.8006281 0 -0.5991613 -0.8006285 -1 0 0 0 0.5991635 0.8006267 0 0.5991636 0.8006266 1 -1.45519e-7 0 1 1.45519e-7 0 0 -0.5991628 -0.8006273 0 -0.5991618 -0.800628 -1 1.16415e-6 0 0 0.5991643 0.8006262 0 -0.5991626 -0.8006274 0 -0.5991608 -0.8006288 -1 0 0 0 0.5991631 0.800627 0 0.5991641 0.8006264 1 -1.45519e-7 0 1 1.45519e-7 0 -3.93647e-6 -0.8006275 0.5991625 0 -0.8006261 0.5991643 -1.83964e-6 -0.8006279 0.5991619 -2.50091e-6 -0.8006266 0.5991636 1.69261e-6 -0.8006252 0.5991656 4.81886e-7 -0.8006274 0.5991628 1.61992e-6 -0.8006274 0.5991627 0 -0.8006269 0.5991633 2.05039e-7 -0.800627 0.5991632 0 -0.8006272 0.5991629 0 -0.8006264 0.5991639 0 -0.8006277 0.5991622 0 -0.8006278 0.599162 0 -0.8006255 0.5991652 0 -0.8006271 0.5991631 0 -0.8006267 0.5991635 1.67775e-6 -0.800627 0.5991633 -3.2441e-6 -0.8006268 0.5991635 -2.8286e-6 -0.8006277 0.5991624 0 -0.8006284 0.5991615 0 -0.8006277 0.5991624 0 -0.8006269 0.5991632 8.20156e-7 -0.8006267 0.5991636 0 -0.8006271 0.5991632 -6.01877e-7 -0.8006273 0.5991627 -4.54596e-7 -0.8006271 0.599163 0 -0.8006269 0.5991632 0 -0.8006275 0.5991625 2.16934e-6 -0.8006259 0.5991647 0 -0.8006278 0.5991621 -1.71211e-6 -0.8006265 0.5991637 0 -0.800627 0.5991632 0 -0.8006271 0.5991631 2.03649e-7 -0.8006279 0.599162 9.18276e-7 -0.800627 0.5991631 -5.95602e-7 -0.8006272 0.5991629 -9.09426e-7 -0.8006264 0.5991639 4.54597e-7 -0.800627 0.5991632 0 -0.8006274 0.5991627 -2.44899e-6 -0.8006249 0.5991659 0 -0.8006259 0.5991648 1.60524e-6 -0.8006266 0.5991637 1.28164e-6 -0.8006275 0.5991624 0 -0.8006272 0.5991628 0 -0.8006277 0.5991623 -7.98079e-7 -0.8006276 0.5991623 0 -0.8006274 0.5991627 0 -0.8006272 0.5991629 7.72355e-6 -0.8006297 0.5991596 -5.21026e-7 -0.800627 0.5991631 2.24456e-6 -0.8006286 0.5991612 -4.0861e-7 -0.8006283 0.5991615 0 -0.8006268 0.5991634 0 -0.8006274 0.5991626 -7.66028e-7 -0.8006261 0.5991644 4.69285e-7 -0.8006271 0.599163 0 -0.8006271 0.5991629 0 -0.800627 0.5991631 0 -0.800627 0.5991631 0 -0.8006283 0.5991613 -9.88752e-7 -0.8006271 0.599163 0 -0.8006262 0.5991643 0 -0.8006269 0.5991633 -8.11186e-7 -0.8006272 0.5991628 5.95603e-7 -0.8006273 0.5991628 4.61295e-7 -0.8006271 0.599163 -4.69285e-7 -0.8006267 0.5991635 6.17832e-7 -0.8006273 0.5991627 -6.8218e-7 -0.8006262 0.5991642 0 -0.800628 0.599162 4.24427e-7 -0.8006271 0.5991629 2.88883e-7 -0.800627 0.5991632 -7.17942e-7 -0.8006271 0.5991632 0 -0.8006271 0.599163 -8.20154e-7 -0.800627 0.5991631 4.0861e-7 -0.8006286 0.5991611 0 -0.8006274 0.5991628 0 0.8006264 -0.5991639 0 0.8006267 -0.5991635 4.24427e-7 0.8006271 -0.5991629 0 0.800627 -0.5991631 3.24483e-6 0.8006254 -0.5991654 0 0.8006286 -0.599161 0 0.8006271 -0.599163 1.25832e-6 0.8006263 -0.599164 -3.21499e-6 0.8006285 -0.5991612 -1.50866e-6 0.8006265 -0.5991638 3.03845e-6 0.8006274 -0.5991625 0 0.8006269 -0.5991634 -2.55869e-6 0.8006269 -0.5991633 0 0.8006269 -0.5991632 -1.19121e-6 0.800627 -0.5991631 -3.93648e-6 0.8006262 -0.5991642 5.95603e-7 0.800627 -0.5991631 0 0.8006262 -0.5991642 4.59908e-7 0.8006274 -0.5991627 2.40943e-7 0.8006271 -0.5991631 1.87568e-6 0.8006272 -0.599163 0 0.8006278 -0.5991622 0 0.8006277 -0.5991622 0 0.8006266 -0.5991638 0 0.8006272 -0.5991628 1.25459e-6 0.8006272 -0.5991629 0 0.8006272 -0.5991629 0 0.800628 -0.599162 0 0.800627 -0.5991632 -2.89381e-7 0.8006276 -0.5991623 0 0.8006271 -0.5991632 -8.2334e-7 0.8006265 -0.5991638 0 0.8006269 -0.5991632 0 0.8006268 -0.5991634 0 0.8006268 -0.5991635 0 0.8006273 -0.5991628 -1.00251e-6 0.800628 -0.5991618 -4.2427e-7 0.8006272 -0.5991628 0 0.8006274 -0.5991626 6.01723e-7 0.800627 -0.5991631 -1.94671e-6 0.8006287 -0.5991609 9.87754e-7 0.8006271 -0.5991632 -2.29569e-7 0.8006267 -0.5991636 8.54584e-7 0.800628 -0.5991618 0 0.8006271 -0.5991631 4.07e-7 0.8006274 -0.5991628 2.88885e-7 0.800625 -0.5991658 0 0.8006267 -0.5991635 0 0.8006266 -0.5991637 0 0.8006266 -0.5991637 0 0.8006261 -0.5991643 4.10077e-7 0.8006271 -0.599163 -2.44925e-6 0.8006266 -0.5991638 0 0.800628 -0.5991618 1.60525e-6 0.8006273 -0.5991628 -1.28164e-6 0.8006269 -0.5991632 -2.35388e-6 0.8006272 -0.5991629 -2.77555e-7 0.8006272 -0.5991629 -2.66027e-7 0.8006263 -0.599164 1.44034e-6 0.8006263 -0.599164 0 0.8006269 -0.5991633 -1.92045e-6 0.8006261 -0.5991644 -2.57497e-6 0.8006265 -0.5991637 2.24457e-6 0.8006262 -0.5991642 0 0.8006283 -0.5991616 -9.2259e-7 0.8006275 -0.5991626 0 0.8006262 -0.5991643 4.69285e-7 0.8006272 -0.5991629 0 0.8006283 -0.5991614 0 0.8006276 -0.5991623 -4.29127e-6 0.8006281 -0.5991617 0 0.8006263 -0.599164 4.10078e-7 0.8006269 -0.5991632 -8.20154e-7 0.8006271 -0.599163 0 0.8006271 -0.5991629 -6.27293e-7 0.800627 -0.5991631 9.22589e-7 0.8006274 -0.5991625 0.9863626 -0.09860569 -0.1317795 0.789142 -0.3680038 -0.4917603 0.8794888 -0.2851464 -0.3810396 0.9458212 -0.1945295 -0.2599627 0.5469415 -0.5015894 -0.670271 0.4016923 -0.5487028 -0.7331907 0.6772775 -0.4408163 -0.5890471 0.08255493 -0.5971118 -0.7978987 -0.08255493 -0.5971118 -0.7978987 0.2454642 -0.5808374 -0.7761284 -0.5469629 -0.501581 -0.6702599 -0.4016923 -0.5487028 -0.7331907 -0.2454642 -0.5808374 -0.7761284 -0.789142 -0.3680038 -0.4917603 -0.8794811 -0.2851744 -0.3810362 -0.5469415 -0.5015894 -0.670271 -0.6772775 -0.4408163 -0.5890471 -0.9863626 -0.09860569 -0.1317795 -0.9458212 -0.1945295 -0.2599627 -0.8796033 0.285205 0.3807311 -0.9458746 0.1945585 0.259747 -0.9457806 0.1946495 0.260021 -0.9863549 0.09863853 0.1318131 -0.6770766 0.4409467 0.5891803 -0.5472988 0.5017033 0.669894 -0.6775569 0.440911 0.5886545 -0.8793888 0.2852963 0.381158 -0.7889927 0.3681579 0.4918844 -0.7893469 0.3680608 0.4913886 -0.2458948 0.5809674 0.7758948 -0.2450997 0.5807803 0.7762863 -0.08298176 0.5972615 0.7977423 -0.4020624 0.5488302 0.7328925 -0.5466892 0.5016735 0.6704137 -0.401359 0.5487367 0.7333478 0.08215737 0.5972585 0.7978299 0.08298224 0.5969291 0.797991 0.2451027 0.5809705 0.7761431 -0.08215731 0.5970141 0.7980127 0.2458932 0.5805669 0.776195 0.4013658 0.5488376 0.7332686 0.5466921 0.5017067 0.6703867 0.4020644 0.5483751 0.7332319 0.5472771 0.5012231 0.670271 0.6770736 0.4409142 0.5892081 0.6775566 0.4404225 0.5890204 0.7889986 0.3680996 0.4919186 0.8793914 0.2852056 0.3812201 0.7893407 0.3676306 0.4917204 0.8796031 0.2848387 0.3810057 0.9457824 0.1945583 0.2600825 0.9458689 0.1943436 0.2599285 0.9863549 0.09863853 0.1318131</float_array>
          <technique_common>
            <accessor source="#ID4_018-mesh-normals-array" count="633" stride="3">
              <param name="X" type="float"/>
              <param name="Y" type="float"/>
              <param name="Z" type="float"/>
            </accessor>
          </technique_common>
        </source>
        <vertices id="ID4_018-mesh-vertices">
          <input semantic="POSITION" source="#ID4_018-mesh-positions"/>
        </vertices>
        <triangles material="ID10_003-material" count="1208">
          <input semantic="VERTEX" source="#ID4_018-mesh-vertices" offset="0"/>
          <input semantic="NORMAL" source="#ID4_018-mesh-normals" offset="1"/>
          <p>0 0 1 0 2 0 3 0 4 0 5 0 6 0 4 0 7 0 4 0 6 0 8 0 1 0 8 0 9 0 9 0 10 0 1 0 11 0 12 0 5 0 13 0 8 0 14 0 13 0 11 0 5 0 3 0 15 0 4 0 8 0 1 0 14 0 5 0 4 0 13 0 8 0 13 0 4 0 2 0 12 0 0 0 12 0 11 0 0 0 1 0 0 0 14 0 16 1 17 1 18 1 18 1 19 1 16 1 20 2 21 2 22 2 22 2 23 2 20 2 24 1 25 1 26 1 24 1 27 1 25 1 28 3 29 3 30 3 28 3 31 3 29 3 32 1 33 1 34 1 32 1 35 1 33 1 36 3 37 3 38 3 36 3 39 3 37 3 40 4 41 4 42 4 42 4 43 4 40 4 44 3 45 3 46 3 44 3 47 3 45 3 48 4 49 4 50 4 50 4 51 4 48 4 52 2 53 2 54 2 54 2 55 2 52 2 56 4 57 4 58 4 58 4 59 4 56 4 60 5 61 5 62 5 62 2 63 2 60 2 64 3 65 3 66 3 64 3 66 3 67 3 68 1 69 1 70 1 68 1 70 1 71 1 72 2 73 2 74 2 73 2 72 2 75 2 76 4 77 4 78 4 77 4 76 4 79 4 80 6 81 6 82 6 83 6 84 6 81 6 84 6 83 6 85 6 86 6 87 6 88 6 89 6 87 6 83 6 90 7 88 7 91 7 86 8 83 8 87 8 92 6 93 6 80 6 94 6 80 6 82 6 93 6 90 6 80 6 95 6 90 6 91 6 81 6 95 6 89 6 83 6 81 6 89 6 90 6 95 6 80 6 81 6 80 6 95 6 87 6 91 6 88 6 96 2 98 2 97 2 99 2 101 2 100 2 102 2 104 2 103 2 105 2 104 2 102 2 106 2 108 2 107 2 109 2 111 2 110 2 112 2 114 2 113 2 112 2 115 2 98 2 107 2 108 2 116 2 117 2 118 2 113 2 119 2 117 2 113 2 109 2 110 2 120 2 121 2 115 2 118 2 122 2 117 2 123 2 124 2 126 2 125 2 122 2 118 2 117 2 112 9 127 9 114 9 128 2 124 2 129 2 124 2 125 2 130 2 124 2 128 2 131 2 132 2 134 2 133 2 114 2 127 2 135 2 129 2 124 2 130 2 116 2 108 2 115 2 132 2 133 2 114 2 136 2 137 2 135 2 101 2 135 2 127 2 127 2 100 2 101 2 136 2 135 2 101 2 110 2 116 2 138 2 115 2 138 2 116 2 139 10 121 10 118 10 120 2 140 2 139 2 139 11 140 11 121 11 110 2 138 2 120 2 140 2 120 2 138 2 99 12 97 12 141 12 96 13 99 13 100 13 130 2 113 2 133 2 142 2 98 2 108 2 96 2 112 2 98 2 96 2 97 2 99 2 129 2 130 2 133 2 114 2 133 2 113 2 126 14 119 14 125 14 126 2 117 2 119 2 112 2 113 2 115 2 113 15 118 15 115 15 141 16 97 16 143 16 115 2 108 2 98 2 104 2 142 2 103 2 108 2 103 2 142 2 141 2 143 2 104 2 142 2 104 2 143 2 144 1 146 1 145 1 145 1 147 1 144 1 148 6 150 6 149 6 149 6 151 6 148 6 152 4 154 4 153 4 153 4 155 4 152 4 156 6 158 6 157 6 157 6 159 6 156 6 160 4 162 4 161 4 161 4 163 4 160 4 164 0 166 0 165 0 165 0 167 0 164 0 168 4 170 4 169 4 169 4 171 4 168 4 172 6 174 6 173 6 173 6 175 6 172 6 176 4 178 4 177 4 177 4 179 4 176 4 180 0 182 0 181 0 181 0 183 0 180 0 184 4 186 4 185 4 185 4 187 4 184 4 188 6 190 6 189 6 189 6 191 6 188 6 192 4 194 4 193 4 193 4 195 4 192 4 196 0 198 0 197 0 197 0 199 0 196 0 200 4 202 4 201 4 201 4 203 4 200 4 204 0 206 0 205 0 205 0 207 0 204 0 208 4 210 4 209 4 209 4 211 4 208 4 212 0 214 0 213 0 213 0 215 0 212 0 216 1 218 1 217 1 217 1 219 1 216 1 220 0 222 0 221 0 221 0 223 0 220 0 224 1 226 1 225 1 225 1 227 1 224 1 228 0 230 0 229 0 229 0 231 0 228 0 232 1 234 1 233 1 233 1 235 1 232 1 236 6 238 6 237 6 237 6 239 6 236 6 240 1 242 1 241 1 241 1 243 1 240 1 244 0 246 0 245 0 245 0 247 0 244 0 248 1 250 1 249 1 249 1 251 1 248 1 252 6 254 6 253 6 253 6 255 6 252 6 256 1 258 1 257 1 257 1 259 1 256 1 260 0 262 0 261 0 261 0 263 0 260 0 264 1 266 1 265 1 265 1 267 1 264 1 268 6 270 6 269 6 269 6 271 6 268 6 272 0 274 0 273 0 272 0 273 0 275 0 276 4 278 4 277 4 276 4 277 4 279 4 280 6 282 6 281 6 280 6 281 6 283 6 284 1 286 1 285 1 284 1 285 1 287 1 288 0 290 0 289 0 288 0 289 0 291 0 292 4 294 4 293 4 292 4 293 4 295 4 296 6 298 6 297 6 296 6 297 6 299 6 300 1 302 1 301 1 300 1 301 1 303 1 304 0 306 0 305 0 304 0 305 0 307 0 308 4 310 4 309 4 308 4 309 4 311 4 312 6 314 6 313 6 312 6 313 6 315 6 316 1 318 1 317 1 316 1 317 1 319 1 320 0 322 0 321 0 320 0 321 0 323 0 324 4 326 4 325 4 324 4 325 4 327 4 328 6 330 6 329 6 328 6 329 6 331 6 332 1 334 1 333 1 332 1 333 1 335 1 336 3 338 3 337 3 339 3 341 3 340 3 340 3 343 3 342 3 342 3 344 3 340 3 345 3 339 3 340 3 346 3 348 3 347 3 349 3 351 3 350 3 352 3 336 3 353 3 354 3 346 3 350 3 347 3 349 3 346 3 355 3 357 3 356 3 351 3 356 3 358 3 359 3 352 3 360 3 357 3 358 3 356 3 361 3 363 3 362 3 358 3 364 3 351 3 365 3 367 3 366 3 366 3 368 3 359 3 365 3 366 3 362 3 349 3 350 3 346 3 366 17 369 17 368 17 369 3 370 3 368 3 371 3 373 3 372 3 371 3 374 3 373 3 353 3 360 3 352 3 336 3 375 3 338 3 376 3 378 3 377 3 377 3 352 3 376 3 359 18 362 18 366 18 336 3 337 3 353 3 379 3 353 3 337 3 346 3 354 3 343 3 344 3 381 3 380 3 337 3 380 3 379 3 380 3 382 3 379 3 369 3 371 3 370 3 370 3 371 3 383 3 383 3 376 3 359 3 359 3 376 3 352 3 371 3 372 3 383 3 376 3 383 3 372 3 351 3 349 3 356 3 364 3 363 3 361 3 358 3 363 3 364 3 362 3 350 3 361 3 350 3 362 3 359 3 359 3 360 3 350 3 350 3 360 3 354 3 382 3 354 3 360 3 341 3 346 3 343 3 340 3 341 3 343 3 344 3 342 3 381 3 354 3 382 3 381 3 381 19 382 19 380 19 384 20 386 20 385 20 384 21 388 21 387 21 389 22 391 22 390 22 384 23 387 23 392 23 393 24 395 24 394 24 396 25 398 25 397 25 399 26 401 26 400 26 402 27 401 27 399 27 396 28 397 28 402 28 403 29 404 29 385 29 399 30 405 30 402 30 406 31 408 31 407 31 409 32 406 32 394 32 385 33 410 33 403 33 393 34 394 34 411 34 391 35 413 35 412 35 414 36 393 36 415 36 416 37 417 37 391 37 418 38 414 38 415 38 419 39 420 39 415 39 415 40 421 40 418 40 415 41 423 41 422 41 416 42 389 42 423 42 424 43 422 43 423 43 424 44 423 44 425 44 426 45 415 45 427 45 427 46 415 46 422 46 413 47 391 47 417 47 419 48 415 48 426 48 415 49 420 49 421 49 389 50 390 50 428 50 429 51 430 51 410 51 404 52 401 52 388 52 404 53 384 53 385 53 429 54 410 54 385 54 400 55 401 55 431 55 432 56 434 56 433 56 388 57 401 57 397 57 401 58 402 58 397 58 388 59 384 59 404 59 435 60 393 60 414 60 408 61 433 61 407 61 409 62 408 62 406 62 434 63 407 63 433 63 434 64 412 64 407 64 412 65 413 65 407 65 412 66 410 66 391 66 410 67 412 67 436 67 433 68 400 68 432 68 431 69 432 69 400 69 403 70 432 70 431 70 403 71 436 71 432 71 410 72 436 72 403 72 416 73 423 73 415 73 395 74 393 74 435 74 417 75 411 75 406 75 394 76 406 76 411 76 391 77 389 77 416 77 411 27 417 27 416 27 437 78 439 78 438 78 438 79 440 79 437 79 441 80 443 80 442 80 442 81 444 81 441 81 445 82 447 82 446 82 446 83 448 83 445 83 449 84 451 84 450 84 450 85 452 85 449 85 453 86 455 86 454 86 454 87 456 87 453 87 457 88 459 88 458 88 458 89 460 89 457 89 461 90 463 90 462 90 462 91 464 91 461 91 465 92 467 92 466 92 466 92 468 92 465 92 469 93 471 93 470 93 470 94 472 94 469 94 473 95 475 95 474 95 474 96 476 96 473 96 477 97 479 97 478 98 477 97 480 99 479 97 478 98 479 97 481 98 482 99 480 99 477 97 480 99 482 99 483 100 482 99 484 100 483 100 485 101 487 102 486 102 486 102 487 102 488 103 489 104 491 101 490 104 489 104 485 101 491 101 491 101 485 101 486 102 487 102 492 103 488 103 492 103 494 105 493 105 493 105 488 103 492 103 493 105 494 105 495 106 494 105 496 106 495 106 497 107 499 108 498 109 498 109 499 108 500 110 497 107 502 111 501 112 501 112 502 111 503 113 503 113 505 114 504 115 504 115 501 112 503 113 506 116 504 115 505 114 506 116 505 114 507 117 508 118 506 116 507 117 502 111 497 107 498 109 508 118 507 117 509 119 500 110 499 108 510 120 510 120 512 121 511 122 511 122 500 110 510 120 513 123 514 124 512 121 511 122 512 121 514 124 515 125 513 123 516 126 513 123 515 125 514 124 516 126 518 127 517 128 517 128 515 125 516 126 517 128 518 127 519 129 518 127 520 129 519 129 521 130 523 130 522 130 522 131 524 131 521 131 525 132 527 132 526 132 525 0 528 0 527 0 529 133 531 133 530 133 530 134 532 134 529 134 533 135 535 135 534 135 534 136 536 136 533 136 537 137 539 137 538 137 538 138 540 138 537 138 541 139 543 139 542 139 541 0 544 0 543 0 545 140 547 140 546 140 546 141 548 141 545 141 549 6 551 6 550 6 550 6 552 6 549 6 553 3 555 3 554 3 553 142 554 142 556 142 557 6 559 6 558 6 559 6 557 6 560 6 561 143 563 143 562 143 561 2 562 2 564 2 565 0 567 0 566 0 565 0 566 0 568 0 569 3 571 3 570 3 569 144 570 144 572 144 573 6 575 6 574 6 575 6 573 6 576 6 577 145 579 145 578 145 577 2 578 2 580 2 581 0 583 0 582 0 581 0 582 0 584 0 585 3 587 3 586 3 585 146 586 146 588 146 589 6 591 6 590 6 591 6 589 6 592 6 593 147 595 147 594 147 593 2 594 2 596 2 597 0 599 0 598 0 597 0 598 0 600 0 601 148 603 148 602 148 601 149 602 149 604 149 605 6 607 6 606 6 607 150 605 150 608 150 609 151 611 151 610 151 611 152 609 152 612 152 613 0 615 0 614 0 613 153 614 153 616 153 617 154 619 154 618 154 620 155 622 155 621 155 623 156 625 156 624 156 618 157 626 157 624 157 624 158 627 158 623 158 628 159 630 159 629 159 631 160 633 160 632 160 634 161 636 161 635 161 637 162 634 162 635 162 631 163 637 163 633 163 629 164 622 164 628 164 634 165 637 165 638 165 620 166 628 166 622 166 639 167 620 167 621 167 640 168 642 168 641 168 642 169 640 169 639 169 643 170 645 170 644 170 646 171 618 171 624 171 647 172 649 172 648 172 648 173 649 173 650 173 625 174 635 174 646 174 643 175 651 175 647 175 652 176 647 176 651 176 653 177 651 177 654 177 653 178 655 178 651 178 654 179 643 179 656 179 651 180 643 180 654 180 657 181 656 181 643 181 644 182 658 182 643 182 617 183 659 183 619 183 652 184 661 184 660 184 660 185 649 185 652 185 643 186 640 186 662 186 663 187 629 187 630 187 640 188 664 188 639 188 629 189 663 189 636 189 665 190 617 190 666 190 665 191 628 191 650 191 636 192 663 192 667 192 636 193 667 193 635 193 617 194 665 194 649 194 668 195 617 195 618 195 650 196 649 196 665 196 628 197 665 197 630 197 668 198 663 198 666 198 637 199 635 199 633 199 625 200 633 200 635 200 618 201 646 201 668 201 625 202 646 202 624 202 617 203 668 203 666 203 663 204 668 204 667 204 643 205 662 205 645 205 639 206 664 206 620 206 640 207 641 207 662 207 648 208 620 208 664 208 649 209 647 209 652 209 648 210 664 210 647 210 658 211 669 211 643 211 657 212 643 212 669 212 670 6 672 6 671 6 671 6 673 6 670 6 674 213 676 213 675 214 674 213 677 215 676 213 675 214 676 213 678 214 679 215 677 215 674 213 677 215 679 215 680 216 679 215 681 216 680 216 682 0 684 0 683 0 682 0 683 0 685 0 686 4 688 4 687 4 686 4 687 4 689 4 690 6 692 6 691 6 690 6 691 6 693 6 694 1 696 1 695 1 694 1 695 1 697 1 698 0 700 0 699 0 698 0 699 0 701 0 702 4 704 4 703 4 702 4 703 4 705 4 706 6 708 6 707 6 706 6 707 6 709 6 710 1 712 1 711 1 710 1 711 1 713 1 714 0 716 0 715 0 714 0 715 0 717 0 718 4 720 4 719 4 718 4 719 4 721 4 722 6 724 6 723 6 722 6 723 6 725 6 726 1 728 1 727 1 726 1 727 1 729 1 730 0 732 0 731 0 730 0 731 0 733 0 734 4 736 4 735 4 734 4 735 4 737 4 738 6 740 6 739 6 738 6 739 6 741 6 742 1 744 1 743 1 742 1 743 1 745 1 746 217 748 218 747 218 747 218 749 217 746 217 749 217 750 219 746 217 750 219 749 217 751 219 750 219 751 219 752 220 751 219 753 220 752 220 754 2 756 2 755 2 757 2 759 2 758 2 760 2 757 2 761 2 762 221 764 221 763 221 765 222 767 222 766 222 768 223 765 223 766 223 769 2 770 2 766 2 766 224 770 224 771 224 762 225 763 225 772 225 766 226 772 226 769 226 773 2 764 2 762 2 774 2 775 2 762 2 762 227 775 227 773 227 776 228 762 228 777 228 762 2 776 2 774 2 762 2 778 2 777 2 779 229 781 229 780 229 782 2 784 2 783 2 762 2 766 2 758 2 759 2 786 2 785 2 782 2 783 2 755 2 781 2 784 2 780 2 780 230 784 230 782 230 785 231 786 231 779 231 781 2 779 2 760 2 759 2 785 2 787 2 756 2 754 2 788 2 761 2 781 2 760 2 779 232 786 232 760 232 757 2 789 2 761 2 755 2 783 2 761 2 766 2 767 2 788 2 771 233 768 233 766 233 788 2 754 2 766 2 755 2 761 2 789 2 782 234 755 234 756 234 787 235 785 235 790 235 766 2 789 2 758 2 777 2 778 2 790 2 790 2 778 2 787 2 772 2 766 2 762 2 759 2 787 2 758 2 757 2 758 2 789 2 791 236 793 237 792 237 794 238 792 237 795 238 793 237 795 238 792 237 796 239 797 239 794 238 794 238 795 238 796 239 798 240 797 239 796 239 798 240 799 240 797 239 793 237 791 236 800 236 801 241 802 241 800 236 800 236 791 236 801 241 802 241 804 242 803 242 804 242 802 241 801 241 804 242 805 243 803 242 803 242 805 243 806 243 807 3 809 3 808 3 810 3 812 3 811 3 813 3 808 3 809 3 814 3 815 3 808 3 814 3 808 3 813 3 816 244 818 244 817 244 819 3 808 3 815 3 820 3 821 3 816 3 822 3 823 3 816 3 824 3 816 3 823 3 816 3 824 3 820 3 816 3 826 3 825 3 816 3 825 3 822 3 827 3 829 3 828 3 819 3 818 3 808 3 830 3 832 3 831 3 833 3 811 3 834 3 829 3 835 3 828 3 836 3 830 3 835 3 829 3 827 3 833 3 836 3 835 3 829 3 831 3 838 3 837 3 839 3 812 3 810 3 840 3 841 3 839 3 827 245 811 245 833 245 807 3 808 3 842 3 838 3 842 3 837 3 842 3 808 3 837 3 838 3 831 3 840 3 834 3 832 3 836 3 816 3 835 3 808 3 836 3 832 3 830 3 840 3 831 3 841 3 831 3 832 3 841 3 839 3 810 3 840 3 811 3 812 3 834 3 832 3 834 3 812 3 843 3 828 3 821 3 820 246 843 246 821 246 818 3 816 3 808 3 826 3 816 3 817 3 808 3 835 3 830 3 843 247 827 247 828 247 844 248 846 248 845 249 847 250 849 250 848 249 850 251 852 252 851 252 853 251 855 253 854 253 856 254 858 254 857 255 858 254 856 254 851 252 853 251 852 252 850 251 856 254 857 255 859 255 851 252 852 252 858 254 855 253 846 248 854 253 850 251 855 253 853 251 844 248 845 249 848 249 854 253 846 248 844 248 847 250 848 249 845 249 860 4 862 4 861 4 860 256 864 256 863 256 865 257 867 257 866 257 860 258 863 258 868 258 869 4 871 4 870 4 872 259 874 259 873 259 875 260 877 260 876 260 878 261 877 261 875 261 872 262 873 262 878 262 879 263 880 263 861 263 875 264 881 264 878 264 882 4 884 4 883 4 885 265 882 265 870 265 861 266 886 266 879 266 869 4 870 4 887 4 867 4 889 4 888 4 890 4 869 4 891 4 892 267 893 267 867 267 894 268 890 268 891 268 895 4 896 4 891 4 891 269 897 269 894 269 891 270 899 270 898 270 892 4 865 4 899 4 900 4 898 4 899 4 900 4 899 4 901 4 902 271 891 271 903 271 903 4 891 4 898 4 889 4 867 4 893 4 895 4 891 4 902 4 891 4 896 4 897 4 865 4 866 4 904 4 905 4 906 4 886 4 880 272 877 272 864 272 880 273 860 273 861 273 905 274 886 274 861 274 876 4 877 4 907 4 908 275 910 275 909 275 864 276 877 276 873 276 877 277 878 277 873 277 864 278 860 278 880 278 911 279 869 279 890 279 884 4 909 4 883 4 885 4 884 4 882 4 910 280 883 280 909 280 910 4 888 4 883 4 888 4 889 4 883 4 888 4 886 4 867 4 886 281 888 281 912 281 909 282 876 282 908 282 907 283 908 283 876 283 879 4 908 4 907 4 879 4 912 4 908 4 886 284 912 284 879 284 892 285 899 285 891 285 871 4 869 4 911 4 893 286 887 286 882 286 870 287 882 287 887 287 867 288 865 288 892 288 887 289 893 289 892 289 913 290 915 290 914 290 914 291 916 291 913 291 917 292 919 292 918 292 918 293 920 293 917 293 921 294 923 294 922 294 922 295 924 295 921 295 925 296 927 296 926 296 926 297 928 297 925 297 929 298 931 298 930 298 930 299 932 299 929 299 933 300 935 300 934 300 934 301 936 301 933 301 937 302 939 302 938 302 938 303 940 303 937 303 941 304 943 304 942 304 942 304 944 304 941 304 945 305 947 305 946 305 946 306 948 306 945 306 949 96 951 96 950 96 950 307 952 307 949 307 953 97 955 97 954 98 953 97 956 99 955 97 954 98 955 97 957 98 958 99 956 99 953 97 956 99 958 99 959 100 958 99 960 100 959 100 961 101 963 102 962 102 962 102 963 102 964 103 965 104 967 101 966 104 965 104 961 101 967 101 967 101 961 101 962 102 963 102 968 103 964 103 968 103 970 105 969 105 969 105 964 103 968 103 969 105 970 105 971 106 970 105 972 106 971 106 973 107 975 108 974 109 974 109 975 108 976 110 973 107 978 111 977 112 977 112 978 111 979 113 979 113 981 114 980 115 980 115 977 112 979 113 982 116 980 115 981 114 982 116 981 114 983 117 984 118 982 116 983 117 978 111 973 107 974 109 984 118 983 117 985 119 976 110 975 108 986 120 986 120 988 121 987 122 987 122 976 110 986 120 989 123 990 124 988 121 987 122 988 121 990 124 991 125 989 123 992 126 989 123 991 125 990 124 992 126 994 127 993 128 993 128 991 125 992 126 993 128 994 127 995 129 994 127 996 129 995 129 997 308 999 308 998 308 998 309 1000 309 997 309 1001 310 1003 310 1002 310 1001 0 1004 0 1003 0 1005 311 1007 311 1006 311 1006 312 1008 312 1005 312 1009 313 1011 313 1010 313 1010 314 1012 314 1009 314 1013 315 1015 315 1014 315 1014 316 1016 316 1013 316 1017 317 1019 317 1018 317 1017 0 1020 0 1019 0 1021 312 1023 312 1022 312 1022 318 1024 318 1021 318 1025 6 1027 6 1026 6 1026 6 1028 6 1025 6 1029 3 1031 3 1030 3 1029 319 1030 319 1032 319 1033 6 1035 6 1034 6 1035 6 1033 6 1036 6 1037 2 1039 2 1038 2 1037 320 1038 320 1040 320 1041 0 1043 0 1042 0 1041 0 1042 0 1044 0 1045 3 1047 3 1046 3 1045 321 1046 321 1048 321 1049 6 1051 6 1050 6 1051 6 1049 6 1052 6 1053 322 1055 322 1054 322 1053 2 1054 2 1056 2 1057 0 1059 0 1058 0 1057 0 1058 0 1060 0 1061 323 1063 323 1062 323 1061 3 1062 3 1064 3 1065 6 1067 6 1066 6 1067 6 1065 6 1068 6 1069 2 1071 2 1070 2 1069 2 1070 2 1072 2 1073 0 1075 0 1074 0 1073 0 1074 0 1076 0 1077 324 1079 324 1078 324 1077 325 1078 325 1080 325 1081 6 1083 6 1082 6 1083 326 1081 326 1084 326 1085 2 1087 2 1086 2 1087 2 1085 2 1088 2 1089 0 1091 0 1090 0 1089 327 1090 327 1092 327 1093 1 1095 1 1094 1 1096 328 1098 328 1097 328 1099 329 1101 329 1100 329 1094 330 1102 330 1100 330 1100 331 1103 331 1099 331 1104 1 1106 1 1105 1 1107 332 1109 332 1108 332 1110 333 1112 333 1111 333 1113 334 1110 334 1111 334 1107 335 1113 335 1109 335 1105 1 1098 1 1104 1 1110 336 1113 336 1114 336 1096 337 1104 337 1098 337 1115 1 1096 1 1097 1 1116 338 1118 338 1117 338 1118 1 1116 1 1115 1 1119 339 1121 339 1120 339 1122 340 1094 340 1100 340 1123 341 1125 341 1124 341 1124 342 1125 342 1126 342 1101 343 1111 343 1122 343 1119 1 1127 1 1123 1 1128 344 1123 344 1127 344 1129 1 1127 1 1130 1 1129 345 1131 345 1127 345 1130 346 1119 346 1132 346 1127 1 1119 1 1130 1 1133 347 1132 347 1119 347 1120 1 1134 1 1119 1 1093 1 1135 1 1095 1 1128 1 1137 1 1136 1 1136 1 1125 1 1128 1 1119 348 1116 348 1138 348 1139 1 1105 1 1106 1 1116 1 1140 1 1115 1 1105 349 1139 349 1112 349 1141 350 1093 350 1142 350 1141 1 1104 1 1126 1 1112 351 1139 351 1143 351 1112 352 1143 352 1111 352 1093 353 1141 353 1125 353 1144 354 1093 354 1094 354 1126 355 1125 355 1141 355 1104 1 1141 1 1106 1 1144 1 1139 1 1142 1 1113 356 1111 356 1109 356 1101 357 1109 357 1111 357 1094 358 1122 358 1144 358 1101 359 1122 359 1100 359 1093 1 1144 1 1142 1 1139 360 1144 360 1143 360 1119 361 1138 361 1121 361 1115 1 1140 1 1096 1 1116 362 1117 362 1138 362 1124 1 1096 1 1140 1 1125 363 1123 363 1128 363 1124 364 1140 364 1123 364 1134 1 1145 1 1119 1 1133 365 1119 365 1145 365 1146 366 1148 366 1147 366 1147 367 1149 367 1146 367 1150 368 1152 368 1151 369 1150 368 1153 370 1152 368 1151 369 1152 368 1154 369 1155 370 1153 370 1150 368 1153 370 1155 370 1156 371 1155 370 1157 371 1156 371 1158 372 1160 373 1159 374 1161 375 1163 376 1162 377 1162 377 1158 372 1161 375 1163 376 1165 378 1164 378 1162 377 1163 376 1164 378 1159 374 1161 375 1158 372 1164 378 1165 378 1166 379 1167 379 1166 379 1165 378 1168 380 1167 379 1169 380 1166 379 1167 379 1168 380 1170 381 1159 374 1160 373 1171 381 1172 382 1170 381 1170 381 1160 373 1171 381 1173 383 1172 382 1174 384 1171 381 1174 384 1172 382 1173 383 1176 385 1175 386 1176 385 1173 383 1174 384 1177 387 1178 388 1175 386 1175 386 1176 385 1177 387 1177 387 1179 388 1178 388 1180 389 1182 389 1181 389 1180 390 1183 390 1182 390 1184 391 1186 392 1185 391 1187 392 1186 392 1184 391 1185 391 1188 393 1184 391 1187 392 1189 394 1186 392 1187 392 1190 394 1189 394 1191 395 1189 394 1190 394 1191 395 1190 394 1192 395 1193 393 1188 393 1185 391 1194 396 1193 393 1195 396 1193 393 1194 396 1188 393 1195 396 1197 397 1196 397 1196 397 1194 396 1195 396 1196 397 1197 397 1198 398 1197 397 1199 398 1198 398 1200 399 1202 399 1201 400 1200 399 1203 401 1202 399 1201 400 1202 399 1204 400 1205 401 1203 401 1200 399 1203 401 1205 401 1206 402 1205 401 1207 402 1206 402 1208 403 1210 403 1209 403 1210 404 1208 404 1211 404 1212 405 1214 405 1213 405 1212 1 1213 1 1215 1 1216 406 1218 406 1217 406 1216 407 1217 407 1219 407 1220 4 1222 4 1221 4 1222 4 1220 4 1223 4 1224 408 1226 408 1225 408 1226 409 1224 409 1227 409 1228 410 1230 410 1229 410 1228 1 1229 1 1231 1 1232 411 1234 411 1233 411 1232 412 1233 412 1235 412 1236 413 1238 413 1237 413 1238 414 1236 414 1239 414 1240 415 1242 415 1241 415 1242 416 1240 416 1243 416 1244 417 1246 417 1245 417 1244 1 1245 1 1247 1 1248 418 1250 418 1249 418 1248 411 1249 411 1251 411 1252 4 1254 4 1253 4 1254 4 1252 4 1255 4 1256 419 1258 419 1257 419 1258 420 1256 420 1259 420 1260 421 1262 421 1261 421 1260 1 1261 1 1263 1 1264 422 1266 422 1265 422 1264 423 1265 423 1267 423 1268 424 1270 424 1269 424 1270 425 1268 425 1271 425 1272 426 1274 426 1273 426 1275 427 1277 427 1276 427 1278 428 1274 428 1272 428 1279 429 1281 429 1280 429 1282 430 1274 430 1278 430 1274 431 1282 431 1280 431 1283 432 1285 432 1284 432 1280 433 1287 433 1286 433 1288 434 1290 434 1289 434 1287 435 1292 435 1291 435 1293 436 1294 436 1288 436 1295 437 1297 437 1296 437 1280 438 1281 438 1298 438 1299 439 1301 439 1300 439 1302 440 1304 440 1303 440 1305 433 1307 433 1306 433 1308 441 1310 441 1309 441 1304 442 1305 442 1306 442 1311 297 1304 297 1302 297 1309 443 1306 443 1307 443 1304 444 1311 444 1305 444 1299 445 1308 445 1301 445 1312 446 1309 446 1310 446 1313 447 1315 447 1314 447 1289 448 1290 448 1316 448 1317 449 1284 449 1313 449 1318 450 1320 450 1319 450 1321 451 1290 451 1288 451 1322 452 1321 452 1288 452 1322 297 1296 297 1321 297 1323 453 1318 453 1324 453 1296 454 1325 454 1295 454 1318 455 1296 455 1322 455 1326 456 1297 456 1315 456 1296 457 1297 457 1326 457 1327 458 1328 458 1313 458 1327 459 1313 459 1314 459 1315 460 1313 460 1326 460 1284 461 1285 461 1287 461 1284 462 1317 462 1329 462 1330 463 1332 463 1331 463 1291 464 1286 464 1287 464 1333 427 1280 427 1286 427 1334 465 1335 465 1304 465 1280 466 1336 466 1274 466 1274 467 1337 467 1273 467 1280 468 1282 468 1279 468 1301 469 1338 469 1337 469 1337 470 1338 470 1273 470 1301 471 1339 471 1300 471 1301 472 1337 472 1339 472 1308 473 1309 473 1301 473 1306 464 1309 464 1312 464 1303 474 1304 474 1335 474 1304 475 1276 475 1277 475 1277 476 1334 476 1304 476 1340 477 1276 477 1341 477 1341 478 1276 478 1304 478 1290 479 1342 479 1316 479 1343 480 1276 480 1340 480 1285 481 1292 481 1287 481 1329 472 1283 472 1284 472 1313 482 1328 482 1317 482 1344 483 1331 483 1332 483 1332 484 1326 484 1344 484 1326 449 1313 449 1344 449 1275 485 1276 485 1316 485 1343 486 1345 486 1293 486 1275 487 1316 487 1342 487 1343 488 1293 488 1276 488 1294 489 1347 489 1346 489 1294 490 1293 490 1347 490 1345 491 1348 491 1293 491 1347 492 1293 492 1348 492 1346 493 1349 493 1294 493 1320 494 1294 494 1349 494 1293 495 1288 495 1289 495 1318 496 1294 496 1320 496 1318 447 1319 447 1324 447 1323 497 1325 497 1318 497 1296 498 1318 498 1325 498 1281 499 1330 499 1298 499 1330 500 1350 500 1298 500 1333 501 1336 501 1280 501 1350 502 1284 502 1287 502 1330 499 1331 499 1350 499 1284 482 1350 482 1331 482 1351 503 1353 503 1352 503 1354 504 1356 504 1355 504 1357 505 1359 505 1358 505 1359 506 1361 506 1360 506 1362 507 1364 507 1363 507 1365 508 1367 508 1366 508 1366 509 1367 509 1368 509 1369 510 1367 510 1364 510 1369 511 1364 511 1362 511 1367 512 1369 512 1368 512 1363 513 1371 513 1370 513 1372 514 1371 514 1363 514 1373 515 1375 515 1374 515 1374 516 1370 516 1373 516 1376 517 1378 517 1377 517 1379 518 1381 518 1380 518 1382 519 1383 519 1359 519 1384 520 1385 520 1381 520 1381 521 1385 521 1380 521 1384 522 1381 522 1386 522 1386 523 1388 523 1387 523 1389 524 1390 524 1386 524 1356 509 1392 509 1391 509 1393 525 1376 525 1377 525 1394 526 1396 526 1395 526 1397 527 1399 527 1398 527 1400 528 1401 528 1391 528 1392 529 1356 529 1354 529 1353 530 1354 530 1355 530 1398 531 1399 531 1402 531 1403 532 1352 532 1353 532 1398 533 1404 533 1397 533 1377 534 1405 534 1393 534 1361 524 1359 524 1383 524 1399 535 1357 535 1402 535 1386 536 1406 536 1388 536 1407 537 1402 537 1357 537 1378 538 1392 538 1377 538 1357 539 1409 539 1408 539 1353 540 1410 540 1377 540 1405 541 1377 541 1410 541 1351 516 1411 516 1353 516 1353 542 1411 542 1410 542 1412 543 1355 543 1413 543 1355 544 1412 544 1403 544 1353 545 1355 545 1403 545 1402 546 1407 546 1413 546 1355 547 1402 547 1413 547 1357 548 1408 548 1414 548 1357 549 1414 549 1407 549 1409 550 1357 550 1358 550 1415 551 1383 551 1382 551 1359 552 1360 552 1358 552 1382 538 1386 538 1390 538 1382 553 1390 553 1416 553 1406 554 1417 554 1404 554 1418 555 1367 555 1419 555 1386 556 1381 556 1420 556 1381 557 1379 557 1421 557 1386 558 1387 558 1384 558 1374 559 1421 559 1422 559 1421 560 1379 560 1422 560 1374 561 1375 561 1423 561 1374 562 1423 562 1421 562 1370 563 1374 563 1363 563 1364 564 1372 564 1363 564 1365 565 1419 565 1367 565 1367 531 1396 531 1394 531 1396 566 1367 566 1418 566 1424 541 1425 541 1394 541 1425 567 1367 567 1394 567 1378 529 1426 529 1394 529 1378 568 1428 568 1427 568 1426 569 1378 569 1427 569 1376 570 1428 570 1378 570 1391 514 1429 514 1400 514 1400 571 1394 571 1395 571 1426 572 1424 572 1394 572 1395 573 1401 573 1400 573 1378 574 1429 574 1392 574 1392 575 1429 575 1391 575 1404 576 1417 576 1397 576 1417 577 1359 577 1397 577 1404 578 1388 578 1406 578 1389 536 1386 536 1420 536 1382 563 1359 563 1417 563 1415 579 1382 579 1416 579 1430 580 1432 4 1431 4 1433 581 1435 582 1434 582 1436 583 1438 580 1437 583 1439 584 1441 585 1440 584 1442 581 1444 586 1443 586 1445 587 1447 587 1446 588 1448 589 1450 585 1449 589 1451 590 1453 591 1452 591 1454 592 1456 592 1455 588 1457 593 1459 594 1458 593 1460 595 1462 596 1461 596 1463 597 1465 597 1464 1 1466 598 1468 594 1467 598 1469 599 1471 600 1470 601 1472 602 1474 602 1473 1 1475 603 1477 604 1476 605 1478 606 1480 607 1479 608 1481 609 1483 610 1482 611 1484 612 1486 613 1485 614 1487 615 1489 616 1488 617 1489 616 1487 615 1490 618 1491 619 1492 620 1488 617 1488 617 1489 616 1491 619 1493 621 1492 620 1494 622 1491 619 1494 622 1492 620 1493 621 1496 623 1495 624 1496 623 1493 621 1494 622 1497 625 1498 626 1495 624 1495 624 1496 623 1497 625 1499 627 1498 626 1500 628 1497 625 1500 628 1498 626 1499 627 1502 629 1501 630 1502 629 1499 627 1500 628 1503 631 1504 632 1501 630 1501 630 1502 629 1503 631 1432 4 1504 632 1505 632 1503 631 1505 632 1504 632 1431 4 1432 4 1505 632 1490 618 1482 611 1483 610 1487 615 1482 611 1490 618 1484 612 1485 614 1481 609 1481 609 1485 614 1483 610 1475 603 1486 613 1477 604 1477 604 1486 613 1484 612 1480 607 1476 605 1479 608 1480 607 1475 603 1476 605 1478 606 1469 599 1470 601 1478 606 1479 608 1469 599 1471 600 1474 602 1472 602 1470 601 1471 600 1472 602 1464 1 1465 597 1473 1 1474 602 1464 1 1473 1 1466 598 1467 598 1463 597 1463 597 1467 598 1465 597 1457 593 1468 594 1459 594 1459 594 1468 594 1466 598 1462 596 1457 593 1458 593 1460 595 1461 596 1451 590 1462 596 1458 593 1461 596 1452 591 1453 591 1454 592 1460 595 1451 590 1452 591 1456 592 1446 588 1455 588 1453 591 1456 592 1454 592 1445 587 1449 589 1447 587 1446 588 1447 587 1455 588 1441 585 1450 585 1448 589 1448 589 1449 589 1445 587 1444 586 1439 584 1440 584 1439 584 1450 585 1441 585 1442 581 1443 586 1433 581 1444 586 1440 584 1443 586 1434 582 1435 582 1437 583 1442 581 1433 581 1434 582 1436 583 1430 580 1438 580 1435 582 1436 583 1437 583 1431 4 1438 580 1430 580</p>
        </triangles>
      </mesh>
    </geometry>
  </library_geometries>
  <library_visual_scenes>
    <visual_scene id="Scene" name="Scene">
      <node id="Object_001" name="Object.001" type="NODE">
        <matrix sid="transform">-4.37114e-08 -4.37114e-08 -1 0.506716 -1 1.91069e-15 4.37114e-08 0.04045071 0 1 -4.37114e-08 -0.005260154 0 0 0 1</matrix>
        <instance_geometry url="#ID4_018-mesh" name="Object.001">
          <bind_material>
            <technique_common>
              <instance_material symbol="ID10_003-material" target="#ID10_003-material"/>
            </technique_common>
          </bind_material>
        </instance_geometry>
      </node>
    </visual_scene>
  </library_visual_scenes>
  <scene>
    <instance_visual_scene url="#Scene"/>
  </scene>
</COLLADA>